<?xml version="1.0" standalone="no"?>
<!DOCTYPE svg PUBLIC "-//W3C//DTD SVG 20010904//EN"
 "http://www.w3.org/TR/2001/REC-SVG-20010904/DTD/svg10.dtd">
<svg version="1.0" xmlns="http://www.w3.org/2000/svg"
 width="521.000000pt" height="521.000000pt" viewBox="0 0 521.000000 521.000000"
 preserveAspectRatio="xMidYMid meet">
<metadata>
Created by potrace 1.14, written by Peter Selinger 2001-2017
</metadata>
<g transform="translate(0.000000,521.000000) scale(0.100000,-0.100000)"
fill="#000000" stroke="none">
<path d="M2450 4756 c-76 -23 -148 -54 -310 -136 -189 -95 -248 -113 -437
-140 -322 -44 -417 -77 -516 -176 -72 -72 -106 -126 -240 -386 -58 -112 -113
-182 -233 -293 -196 -181 -257 -254 -295 -353 -31 -78 -32 -243 -4 -382 26
-130 38 -220 39 -300 0 -108 -3 -139 -35 -300 -16 -81 -23 -150 -23 -235 0
-114 1 -124 31 -187 51 -109 55 -113 327 -377 109 -105 144 -154 232 -326 97
-190 133 -247 204 -315 100 -98 168 -122 485 -171 110 -17 227 -40 260 -51 33
-11 141 -59 240 -108 218 -107 300 -134 410 -134 109 0 192 27 410 134 99 49
207 98 240 109 57 20 196 47 295 57 153 15 308 58 375 104 99 68 153 139 260
345 124 237 136 252 375 481 132 127 153 152 189 227 54 116 59 216 22 425
-34 190 -36 204 -36 307 0 108 3 132 35 309 40 220 34 322 -28 441 -30 59 -66
100 -222 255 -103 102 -201 206 -218 231 -17 25 -65 112 -107 193 -42 81 -90
168 -106 194 -43 70 -123 146 -188 180 -53 29 -168 66 -236 76 -101 15 -154
23 -220 31 -148 18 -217 43 -483 179 -155 79 -217 97 -337 102 -74 2 -125 -1
-155 -10z"/>
</g>
</svg>
