<?xml version="1.0" encoding="UTF-8"?><svg xmlns="http://www.w3.org/2000/svg" xmlns:xlink="http://www.w3.org/1999/xlink" height="327.6" preserveAspectRatio="xMidYMid meet" version="1.0" viewBox="0.0 -1.6 517.0 327.6" width="517.0" zoomAndPan="magnify"><g fill-rule="evenodd"><g id="change1_1"><path d="m384,18.081c1.734,1.599 2.166,4.501 2,8 1.172-.162.844-1.823 1-3 2.991,2.735-1.335,6.608 0,11-3.34-2.992-2.57-10.099-3-16z" fill="#fff"/></g><g id="change2_1"><path d="m366 21.081c3.073-1.53 3.073 6.53 0 5v-5z" fill="inherit"/></g><g id="change1_2"><path d="m391,24.081c3.959,1.041.7,9.299 3,12-4.09-.911-.94-9.064-3-12z" fill="#fff"/></g><g id="change1_3"><path d="m389,26.081c2.857,1.24 2.349,8.354-1,9-.69-4.022.96-5.709 1-9z" fill="#fff"/></g><g id="change1_4"><path d="m363,41.081c-1.218-2.116-3.763-2.904-4-6 2.46.869 4.34,2.33 4,6z" fill="#fff"/></g><g id="change1_5"><path d="m185,69.081c-.027-4.36 3.19-5.477 4-9 3.79,1.456-1.4,7.665-4,9z" fill="#fff"/></g><g id="change1_6"><path d="m314,60.081c1.581,1.752 1.339,5.328 2,8-8.878.383-12.505.026-22,0 6.56-3.377 14.37-6.432 20-8z" fill="#fff"/></g><g id="change1_7"><path d="m215,64.081c1.948,1.718 2.155,5.178 2,9-1.172-.162-.843-1.823-1-3-1.172.162-.843,1.823-1,3-3.06-2.169.96-5.629 0-9z" fill="#fff"/></g><g id="change1_8"><path d="m345 64.081c2.821 3.539-1.281 8.681-2 12-3.14-3.859 2.51-7.449 2-12z" fill="#fff"/></g><g id="change1_9"><path d="m199,65.081c2.515,4.611 7.143,1.665 9,9-4.019,1.288-10.479-.769-17,0 1.16-7.665 7.14-5.054 8-9z" fill="#fff"/></g><g id="change1_10"><path d="m156,68.081c1.774-2.668.729,5.859 1,8-1.77,2.668-.73-5.86-1-8z" fill="#fff"/></g><g id="change1_11"><path d="m406,68.081c3.406,4.286 1.591,12.183 0,17-2.56-4.261-.3-12.274 0-17z" fill="#fff"/></g><g id="change1_12"><path d="m185,75.081c.458,3.125-2.137,3.197-5,3 .91-1.753 1.86-3.475 5-3z" fill="#fff"/></g><g id="change1_13"><path d="m205,76.081c-5.338,5.643-8.919,1.1-18,3-.529-.804-1.043-1.624-1-3 3.7-1.016 12.41.669 19,0z" fill="#fff"/></g><g id="change1_14"><path d="m322,81.081c.602-3.602-3.053-2.947-3-6 3.731.936 4.587,4.746 9,5-.85,3.568-2.46.12-6,1z" fill="#fff"/></g><g id="change1_15"><path d="m409,77.081c2.289.834 2.738,6.144 1,8-2.26-.745-.39-5.609-1-8z" fill="#fff"/></g><g id="change1_16"><path d="m175 80.081c2.443 4.593-3.554 17.668-5 25-1.88-7.892 2.82-17.839 5-24.999z" fill="#fff"/></g><g id="change1_17"><path d="m179 80.081c4.451 1.216 10.247 1.086 16 1-6.741 7.259-14.58 13.42-21 21-1.37-6.384 2.96-15.695 5-21.999z" fill="#fff"/></g><g id="change1_18"><path d="m159 81.081c-1.067 2.267-3.033 3.634-6 4 1.45-1.888 2.23-4.433 6-4z" fill="#fff"/></g><g id="change1_19"><path d="m168,83.081c.911,6.924-3.78,16.877-4,26-2.46-8.48 2.73-17.926 4-25.999z" fill="#fff"/></g><g id="change1_20"><path d="m418 87.081c1.734 1.599 2.166 4.501 2 8-1.73-1.599-2.17-4.501-2-8z" fill="#fff"/></g><g id="change2_2"><path d="m302,89.081c-.683,2.984-3.981,3.352-8,3 1.91-2.455 4.43-4.897 8-3z" fill="inherit"/></g><g id="change1_21"><path d="m324,89.081h2c-.184.851.39.943 1,1-1.232,2.101-2.768,3.899-4,6-3.36-2.158 1.31-4.593 1-7z" fill="#fff"/></g><g id="change1_22"><path d="m324,98.081c1.231-3.102 2.201-6.465 6-7-.59,3.739-1.56,7.102-6,7z" fill="#fff"/></g><g id="change1_23"><path d="m416,92.081c2.002,1.331 2.228,4.439 3,7-3.16-.175-2.71-3.956-3-7z" fill="#fff"/></g><g id="change2_3"><path d="m254,100.08c-.656,2.678-2.864,3.802-4,6-2.14-1.56 1.88-5.39 4-6z" fill="inherit"/></g><g id="change1_24"><path d="m282,116.08c-2.236-2.097-.764-7.903-3-10 3.01-1.31 3.76,6.91 3,10z" fill="#fff"/></g><g id="change1_25"><path d="m427,110.08c2.035.965 2.16,3.84 2,7-2.04-.96-2.16-3.84-2-7z" fill="#fff"/></g><g id="change2_4"><path d="m129,113.08c2.711,2.455-.124,7.819-1,10-2.62-2.36 1.63-6.31 1-10z" fill="inherit"/></g><g id="change1_26"><path d="m132 114.08h2v8h-2v-8z" fill="#fff"/></g><g id="change1_27"><path d="m425,117.08c3.739-.815 1.851,6.165 1,7-2.24-.43-.4-4.93-1-7z" fill="#fff"/></g><g id="change1_28"><path d="m422 118.08c1.377 1.548 2.014 6.002 1 7-2.62-1.33-1.91-4.44-1-7z" fill="#fff"/></g><g id="change1_29"><path d="m294,157.08c7.027-4.973 11.25-12.75 16-20 .33,10.67-10.537,18.791-17,26 5.979-2.03 12.68-11.98 17-19-.229,12.443-1.086,32.91-12,38-2.434-5.113 6.355-6.725 6-13-3.203,2.797-3.919,8.081-9,9 2.013-6.987 7.859-10.141 11-16-5.76,1.92-8.449,12.199-13,12 .938-5.543 9.348-11.877 13-18-4.048.303-7.926,9.395-12,13-11.136-16.792 9.724-27.347 15-40 4.12,10.66-10.93,18.92-15,28z" fill="#fff"/></g><g id="change1_30"><path d="m431,136.08c2.009,1.115 1.146,7.735 0,9-2.48-1.58-.41-7 0-9z" fill="#fff"/></g><g id="change1_31"><path d="m319 140.08c3.288 2.083-1.688 4.217-2 6-4.55-1.58 1.49-3.58 2-6z" fill="#fff"/></g><g id="change1_32"><path d="m321,144.08c1.854-2.43.675,6.592 1,9-1.85,2.43-.68-6.59-1-9z" fill="#fff"/></g><g id="change1_33"><path d="m438,143.08c2.27,1.064.381,6.286 1,9-2.26-1.94-2.3-6.09-1-9z" fill="#fff"/></g><g id="change1_34"><path d="m319,154.08c1.357.31.83,2.504 1,4-1.162-.163-1.779.221-2,1-3.03-1.22.71-3.82 1-5z" fill="#fff"/></g><g id="change1_35"><path d="m334,155.08c3.008-1.008 1.772,2.228 2,4h-3c-.42-2.09.69-2.65 1-4z" fill="#fff"/></g><g id="change1_36"><path d="m319,160.08c2.904,1.394-.283,4.935-1,6-2.169.168-.453-3.547-1-5 1.16.16 1.78-.22 2-1z" fill="#fff"/></g><g id="change1_37"><path d="m334,161.08c2.741.021 2.375,4.717 1,6-2.21-.12-.42-4.24-1-6z" fill="#fff"/></g><g id="change1_38"><path d="m329 164.08c3.714 2.82-2.687 3.901-3 6-3.71-2.82 2.69-3.9 3-6z" fill="#fff"/></g><g id="change1_39"><path d="m314,165.08c2.904,1.394-.283,4.936-1,6-2.9-1.39.28-4.93 1-6z" fill="#fff"/></g><g id="change1_40"><path d="m321,173.08c-.297,2.036-2.003,2.664-3,4-2.67-1.16-.09-5.31 3-4z" fill="#fff"/></g><g id="change1_41"><path d="m323,174.08c2.136.625.938,6.155 0,7-2.14-.62-.94-6.16 0-7z" fill="#fff"/></g><g id="change1_42"><path d="m466,180.08c3.411-.697 10.129-4.672 10,2-4.56-.691-4.111-1.139-3,3-1.464.018-3.17-4.217-3,0-2.2-.8-3.99-2.01-4-5z" fill="#fff"/></g><g id="change1_43"><path d="m316,187.08c-.638-4.638 1.813-6.187 4-8 1.77,1.84-1,7.61-4,8z" fill="#fff"/></g><g id="change2_5"><path d="m161 184.08c1.044 4.069-6.332 8.315-8 13-1.25-4.27 5.76-8.89 8-13z" fill="inherit"/></g><g id="change1_44"><path d="m314,184.08c3.106,2.85-.445,7.498-2,9-3.11-2.85.44-7.5 2-9z" fill="#fff"/></g><g id="change1_45"><path d="m260,185.08c2.892,3.609-.775,9.187-2,12-1.8-2.52 1.49-8.47 2-12z" fill="#fff"/></g><g id="change1_46"><path d="m292,185.08c4.336,1.371-.076,4.118-1,6-2.9-1.39.28-4.94 1-6z" fill="#fff"/></g><g id="change1_47"><path d="m318,193.08c-3.511-1.948-.432-4.716 1-7 2.75,1.55.1,6-1,7z" fill="#fff"/></g><g id="change1_48"><path d="m356,194.08c-2.904-1.395.283-4.936 1-6 2.36.85-.83,4.39-1,6z" fill="#fff"/></g><g id="change1_49"><path d="m308,190.08c3.683-.921 1.817,5.274 1,6-2.21-.12-.42-4.24-1-6z" fill="#fff"/></g><g id="change1_50"><path d="m477,190.08c2.71,1.815-.554,6.034-1,8-4.72-1.8 1-4.91 1-8z" fill="#fff"/></g><g id="change1_51"><path d="m462,191.08c-1.417,2.583-.083,7.917-4,8 2.25-1.75.31-7.69 4-8z" fill="#fff"/></g><g id="change1_52"><path d="m314 192.08c2.32 8.998-7.823 14.168-11 21-2.992-7.769 4.03-12.966 8-14-1.02-4.35 2.07-4.6 3-7z" fill="#fff"/></g><g id="change1_53"><path d="m457 192.08c3.008 2.752-1.004 6.938-1 10-2.89-2.64 2.24-5.7 1-10z" fill="#fff"/></g><g id="change2_6"><path d="m149,193.08c1.446.24 2.325,8.23-1,7-.49-3.16 1.8-3.53 1-7z" fill="inherit"/></g><g id="change1_54"><path d="m305,193.08c3.65.681 1.812,6.88 0,8-2.06-.86-1.06-6.96 0-8z" fill="#fff"/></g><g id="change1_55"><path d="m298,194.08c2.904,1.395-.283,4.936-1,6-2.9-1.39.28-4.94 1-6z" fill="#fff"/></g><g id="change1_56"><path d="m129,195.08c2.669,1.463-.418,5.487-3,5-.47-3.14 2.69-2.64 3-5z" fill="#fff"/></g><g id="change1_57"><path d="m258 203.08c-2.932-2.038 1.355-5.232 2-7 2.51 1.62-1.78 4.81-2 7z" fill="#fff"/></g><g id="change1_58"><path d="m263,196.08c2.578,1.373.222,6.127 0,8-2.06-.86-1.06-6.96 0-8z" fill="#fff"/></g><g id="change1_59"><path d="m356,196.08c3.458,2.003.299,3.704 0,7-2.69-1.18 0-5.21 0-7z" fill="#fff"/></g><g id="change1_60"><path d="m286,197.08c.857,3.19-1.574,3.093-2,5-2.3-.78-.97-6.19 2-5z" fill="#fff"/></g><g id="change1_61"><path d="m301,197.08c2.906.019 2.364,5.651 1,7-2.24-.43-.4-4.93-1-7z" fill="#fff"/></g><g id="change1_62"><path d="m298,200.08c3.652.733 1.975,7.884 0,9-1.62-2.76-2.65-7.2 0-9z" fill="#fff"/></g><g id="change1_63"><path d="m259,202.08c2.796,1.221 1.604,8.443-2,9-.43-4.1.93-6.41 2-9z" fill="#fff"/></g><g id="change1_64"><path d="m285,202.08c2.904,1.395-.283,4.936-1,6-2.9-1.39.28-4.94 1-6z" fill="#fff"/></g><g id="change1_65"><path d="m294,206.08c3.785,2.17.95,6.103-1,8-2.6-1.7-.43-7.02 1-8z" fill="#fff"/></g><g id="change1_66"><path d="m255,209.08c3.227,2.649-.851,6.415-2,8-3.26-2.69 1.68-5.59 2-8z" fill="#fff"/></g><g id="change1_67"><path d="m277,209.08c2.904,1.395-.283,4.936-1,6-2.9-1.39.28-4.94 1-6z" fill="#fff"/></g><g id="change1_68"><path d="m299,209.08c3.527,2.03 2.13,9.786-2,10-.17-4.16-.35-8.34 2-10z" fill="#fff"/></g><g id="change1_69"><path d="m282,223.08c.057-3.61 2.493-4.841 3-8 3.906,2.601 2.061-1.774 4-5 3.898.928 1.194,6.262 0,8-4.9-3-.42,5.25-7,5z" fill="#fff"/></g><g id="change1_70"><path d="m489,210.08c3.124-.458 3.197,2.137 3,5-1.98-.69-2.67-2.67-3-5z" fill="#fff"/></g><g id="change1_71"><path d="m262 212.08c2.693 1.183-4e-3 5.214 0 7-2.69-1.18 0-5.21 0-7z" fill="#fff"/></g><g id="change1_72"><path d="m268 212.08c3.24 3.632-2.377 6.913-3 10-2.88-3.27 1.44-7.85 3-10z" fill="#fff"/></g><g id="change1_73"><path d="m272,213.08c2.791,1.897-.185,6.403-1,8-2.34-1.45.64-5.95 1-8z" fill="#fff"/></g><g id="change1_74"><path d="m294,226.08c-5.025-1.917-.497-10.092 1-12 2.71,3.1.32,9.61-1,12z" fill="#fff"/></g><g id="change1_75"><path d="m488,214.08c2.152.848 3.537,2.463 3,6-3.58.58-3.04-2.96-3-6z" fill="#fff"/></g><g id="change1_76"><path d="m277,215.08c2.329,2.002 2.451,6.241 0,8-3.65-.68-1.81-6.88 0-8z" fill="#fff"/></g><g id="change1_77"><path d="m250,216.08c-.177,5.913-.146,4.53 1,12h-4c-.51-5.51.07-9.93 3-12z" fill="#fff"/></g><g id="change1_78"><path d="m161 217.08c2.826 2.249-1.643 5.623-2 8-3.26-2.69 1.68-5.59 2-8z" fill="#fff"/></g><g id="change1_79"><path d="m255 217.08c2.711 1.506-1.591 4.314-2 6-3.29-2.08 1.69-4.22 2-6z" fill="#fff"/></g><g id="change1_80"><path d="m407,224.08c-1.438,1.829 3.778,5.511 4,9-4.617-1.05-4.417-6.917-8-9 .866,4.134 4.134,5.866 5,10-4.091-.909-3.36-6.64-7-8-.272,3.982 5.636,6.973 4,9-3.213.213-2.434-3.566-4-5-2.792,1.282.457,4.761 2,5-.227,1.44-2.984.349-3,2-7.695-5.751 1.867-15.582 7-18 4.114.886 6.56,3.44 7,8-2.039-.294-1.961-2.706-4-3 .768,3.232 2.768,5.232 6,6-3.38,4.47-5.91-4.12-9-6z" fill="#fff"/></g><g id="change1_81"><path d="m478,219.08c3.143,4.19 6.039,8.628 8,14 2.63.296.787-3.88 4-3 .229,5.232 2.976,1.027 6,1-.757,6.115-8.126,1.694-11,4-1.89-5.78-6.7-8.63-7-16z" fill="#fff"/></g><g id="change1_82"><path d="m268,220.08c2.749,2.492-.36,7.582-2,9 .406,3.377 3.877-2.661 3,2h-4c-1.98-5.21.24-6.71 3-11z" fill="#fff"/></g><g id="change1_83"><path d="m288,220.08c.804.529 1.623,1.043 3,1-1.243,6.059.368,11.612 0,15-5.84-.5-1.81-10.86-3-16z" fill="#fff"/></g><g id="change1_84"><path d="m486,220.08c3.124-.458 3.197,2.137 3,5-2.81.15-2.88-2.45-3-5z" fill="#fff"/></g><g id="change1_85"><path d="m503,220.08c3.553.114 4.024,3.31 4,7-3.55-.11-4.02-3.31-4-7z" fill="#fff"/></g><g id="change1_86"><path d="m255,222.08c2.693,1.183-.004,5.214 0,7 2.599.599 3.599-.401 3-3 1.086.247.678,1.988 2,2-.112,2.555-3.349,1.984-6,2-2.71-3.07-1.2-5.26 1-8z" fill="#fff"/></g><g id="change1_87"><path d="m161,224.08c3.113,1.908-1.563,4.342-1,7-2.85-1.64.48-5.42 1-7z" fill="#fff"/></g><g id="change1_88"><path d="m278,224.08c2.54,1.334.631,6.536-3,5v-4c1.42.09 2.83.17 3-1z" fill="#fff"/></g><g id="change1_89"><path d="m508,225.08c3.723-.056 2.884,4.449 3,8-2.98-.68-3.35-3.98-3-8z" fill="#fff"/></g><g id="change1_90"><path d="m503 227.08c2.914 1.419 4.454 4.213 4 9-1.6-2.73-4.38-4.29-4-9z" fill="#fff"/></g><g id="change1_91"><path d="m283,228.08h3c-.888,3.649 1.767,5.326 0,7-2.42-.91-2.65-4.02-3-7z" fill="#fff"/></g><g id="change1_92"><path d="m503,247.08c-1.434,1.232-1.895,3.438-2,6-4.211-1.879-.52-9.582 0-13-2.984-2.072-5.565-9.263-2-12 4.6,3.949 8.734,22.506 3,27-.77-3.77 1.22-4.78 1-8z" fill="#fff"/></g><g id="change2_7"><path d="m431,229.08c1.578,1.755 4.592,2.075 5,5-2.89-.44-4.56-2.11-5-5z" fill="inherit"/></g><g id="change2_8"><path d="m32,242.08c-1.72-2.766-.71-11.343 3-12-2.379,2.62-1.273,8.73-3,12z" fill="inherit"/></g><g id="change2_9"><path d="m314,230.08c1.884.989-.495,6.092-3,6-.04-3.04 2.11-3.89 3-6z" fill="inherit"/></g><g id="change1_93"><path d="m167,231.08c3.369,3.436-1.384,7.233-1,11-3.01-3.07.78-7.83 1-11z" fill="#fff"/></g><g id="change1_94"><path d="m171,232.08c4.214.344 1.396,8.823 1,11-3.334-.644 1.733-8.963-1-6-2.93-.85.6-3.22 0-5z" fill="#fff"/></g><g id="change1_95"><path d="m78 236.08c2.208 1.632-1.396 5.871-2 8-2.208-1.63 1.396-5.87 2-8z" fill="#fff"/></g><g id="change1_96"><path d="m162,236.08c3.151,2.574-2.496,4.771-1,9 1.342-.658 1.862-2.138 2-4 2.361,1.467 1.131,7.719-3,6-1.48-5.63.79-6.17 2-11z" fill="#fff"/></g><g id="change1_97"><path d="m480,237.08c2.976.087 2.676,5.963-1,5-.83-2.83 1.41-2.59 1-5z" fill="#fff"/></g><g id="change2_10"><path d="m135,244.08c-6.828-.554-7.787,1.118-13-1 3.497-4.422 11.154.65 13-4 2.93.85-1.3,2.52 0,5z" fill="inherit"/></g><g id="change1_98"><path d="m91,240.08c3.586,2.414 8.917,3.083 10,8-.973.027-.776,1.224-1,2-.46-1.409-4.54-6.902-5-2-.552-.78-1.475-4.94-4-8z" fill="#fff"/></g><g id="change1_99"><path d="m470,248.08c-3.42-.532-1.53-4.818-1-7 5.08-.19 1.82,4.76 1,7z" fill="#fff"/></g><g id="change1_100"><path d="m62 245.08c-2.532 1.468-1.588 6.412-5 7 1.101-2.9 1.237-6.76 5-7z" fill="#fff"/></g><g id="change1_101"><path d="m419,255.08c.929-2.134 7.271-1.366 6,2-3.46.79-4.22-1.11-6-2z" fill="#fff"/></g><g id="change1_102"><path d="m422,258.08c3.156.177 5.964.702 6,4-3.6.27-6.92.25-6-4z" fill="#fff"/></g><g id="change1_103"><path d="m500,260.08c1.615-.282 1.722.945 3,1 .127,1.794-1.225,2.109-1,4-2.19-.15-2.15-2.52-2-5z" fill="#fff"/></g><g id="change2_11"><path d="m491,264.08c-.083,6.589-2.253,16.146-5,23-.149-6.162 2.021-18.635 5-25 2.169-.169.453,3.547 1,5-1.17-.16-.84-1.82-1-3z" fill="inherit"/></g><g id="change1_104"><path d="m431,265.08c-3.629,1.753-7.46.643-9,1-1.092,4.092 6.135-.135 4,5-4.701-.632-6.663-4.004-8-8 5.52,1.12 9.24-1.47 13,2z" fill="#fff"/></g><g id="change1_105"><path d="m431,265.08c-.746-3.809 6.477-2.162 5,1-2.32.32-3.84-.16-5-1z" fill="#fff"/></g><g id="change1_106"><path d="m504,263.08c3.298.577 1.434,3.776 1,6-2.74-.02-2.38-4.72-1-6z" fill="#fff"/></g><g id="change1_107"><path d="m507,266.08c2.984.683 3.353,3.981 3,8-4.5.14-4.5-4.82-3-8z" fill="#fff"/></g><g id="change1_108"><path d="m432,267.08c.146,2.812-2.449,2.884-5,3-.37-3.03 3.26-2.08 5-3z" fill="#fff"/></g><g id="change2_12"><path d="m25,269.08c-1.108,1.892-1.276,4.725-2,7-2.94-.02-1.596-7.5 2-7z" fill="inherit"/></g><g id="change2_13"><path d="m30,269.08c3.927.551-.445,8.437 0,12-3.986-1.46.373-7.93 0-12z" fill="inherit"/></g><g id="change2_14"><path d="m29,300.08c1.315-2.685 2.685-5.315 4-8-8.201.896-9.718,16.877-11,28-7.872-12.147 2.966-28.161 14-33 1.3-6.033.001-14.666 4-18-1.564,12.44-1.707,26.29-11,31z" fill="inherit"/></g><g id="change1_109"><path d="m449 273.08c4.243 1.424 2.738 8.595 3 14-3.17-4.48-2.52-8.36-3-14z" fill="#fff"/></g><g id="change2_15"><path d="m496,274.08c.82,9.162-3.696,21.631-5,32-2.31-10.65 4.23-21.1 5-32z" fill="inherit"/></g><g id="change1_110"><path d="m402,284.08c1.55,2.45 1.491,6.509 2,10-4.34-.94-2.56-6.46-2-10z" fill="#fff"/></g><g id="change1_111"><path d="m96,286.08c3.259,2.365-.923,5.664-1,8-3.681-2.06.038-5.12 1-8z" fill="#fff"/></g><g id="change2_16"><path d="m440,286.08c.267,9.275-2.164,24.497-4,35-.2-11.28 1.62-24.33 4-35z" fill="inherit"/></g><g id="change2_17"><path d="m512,286.08c3.162,1.264-.186,10.368 1,16-4.11-1.99-.42-9.32-1-16z" fill="inherit"/></g><g id="change1_112"><path d="m98,291.08c2.844,1.334-.771,4.446-1,6-4.159-1.19.771-3.42 1-6z" fill="#fff"/></g><g id="change2_18"><path d="m435,292.08c.502,1.876.424,11.727-1,15-1.84-3.22.25-11.05 1-15z" fill="inherit"/></g><g id="change2_19"><path d="m482 293.08c3.218 4.397-1.682 17.52-3 24-1.67-6.68 3.71-14.94 3-24z" fill="inherit"/></g><g id="change1_113"><path d="m100,294.08c2.844,1.334-.771,4.447-1,6-2.844-1.33.771-4.45 1-6z" fill="#fff"/></g><g id="change2_20"><path d="m475,295.08c1.471,2.966-.642,13.026-2,19-1.97-4.99 1.26-13.38 2-19z" fill="inherit"/></g><g id="change2_21"><path d="m447,297.08c1.82,5.508.853,16.837-3,20 2.16-5.51 2.12-13.22 3-20z" fill="inherit"/></g><g id="change1_114"><path d="m102 298.08c2.819 2.885-2.775 5.842-3 9-3.198-3.26 2.18-6.44 3-9z" fill="#fff"/></g><g id="change1_115"><path d="m68,300.08c2.136.625.937,6.155 0,7-2.693-1.18.004-5.21 0-7z" fill="#fff"/></g><g id="change2_22"><path d="m483,318.08c-3.715-2.305.896-11.112 1-16 1.51,3.22-.33,11.64-1,16z" fill="inherit"/></g><g id="change2_23"><path d="m486,307.08c2.697,2.441-1.423,6.52 0,11-3.3-.61-.26-7.78 0-11z" fill="inherit"/></g><g id="change2_24"><path d="m491,309.08c2.036,2.441-.045,6.207 0,8-3.71-.74.08-4.99 0-8z" fill="inherit"/></g><g id="change2_25"><path d="m69 319.08c2.647 2.714-2.126 6.491-5 7 1.369-2.63 4.209-3.79 5-7z" fill="inherit"/></g><g id="change2_26"><path d="m509,234.08c-.703,5.242 3.871,13.976 1,20-1.958-7.755-.743-12.544-5-18-1.48,4.336 3.037,16.05 1,21 3.235,1.235.765-3.235 4-2-1.386.613-.15,3.85-2,4 3.011,2.99 4.217,3.625 7,8-.869,2.953-1.497-2.32-4-1 .551,4.782 5.142,5.525 6,10-3.37-.296-2.9-4.434-6-5 .01,5.176-3.261,33.443-3,16 .055-3.672 1.447-7.162 1-11-3.136,4.197-2.63,12.037-3,19 2.355.152 3.314,5.448 3,13-2.86-.14-1.829-4.171-2-7-2.344,2.323.2,9.533-3,11-1.896-9.227 1.633-24.756 3-38-6.841,8.492-2.985,27.681-10,36 2.496-13.17 6.37-24.964 7-40-6.575,10.091-5.9,27.433-10,40-1.717-13.621 9.342-33.004 6-45-1.486,1.514-1.611,4.389-2,7-2.436.396 1.362-8.939 1-13-6.467,1.923-4.677,10.723-6,16-1.891,7.537-5.462,14.889-6,22-.577-12.249 6.447-25.549 8-39-.905-1.762-3.682-1.652-4-4-4.892,4.775-1.133,18.2-7,22 1.517-7.279 4.569-17.92 4-24-4.359,3.641-2.489,13.511-5,19-3.089-1.062 3.508-9.646-2-10 3.275-1.975 6.514-12.186 1-14-3.188-.854-3.796.871-5,2-2.812.146-2.884-2.449-3-5-1.975.691-2.666,2.667-3,5 .898,3.894 2.414-4.581 3-1-.799,6.332-10.384,12.186-18,15 .494-6.036 4.731-2.427 9-5v-5c2.711,2.811 2.489.79 6,0-5.785-1.086-1.315-.171-3-5-3.613-.28-2.287,4.38-4,6-5.229-12.438-13.377-21.956-19-34 5.734,7.6 10.731,15.936 15,25 4.64-.36 2.865-7.135 6-9-3.938-7.062-9.723-12.277-13-20 2.431-1.349 11.522,22.363 14,14 .124,4.192 2.045,7.345 5,11 1.24-3.761 5.559-8.646 4-12-3.984.226-1.261,7.066-3,5-3.748,2.304-.062-1.736-2-3-3.787-6.879-8.861-12.473-12-20 5.73,5.27 8.381,13.619 13,20 5.112-7.81-4.863-16.871-9-22 8.916,3.422 12.265,21.064 21,28-.711-3.973-5.877-12.11-10-16-.147-2.48-.187-4.853 2-5-3.768,2.127-8.498-5.895-10-12 2.403,3.597 5.25,6.75 7,11 4.423-.187.249-7.893-1-5-1.983-2.017-.296-7.704-5-7 2.228-1.903 2.6-9.423 6-7-3.822-3.316 5.323-10.507 5-7 .24-3.355 1.711-4.693 1-9-21.568,25.099-45.512,47.822-81,59 .979,3.688 4.379,4.954 6,8 3.105-.611-5.153-6.396 0-6 .624,3.709 2.812,5.855 4,9 1.737-.532-1.087-4.818-1-7 6.752,3.862 1.92,17.646 14,18 .582-3.582-2.96-3.04-6-3-.302-4.085 1.385.169 4-1-.188-2.812-1.739-4.261-5-4 4.501-2.798-1.771-7.737-2-12 3.865,1.802 3.723,7.611 6,11h4c1.37-3.403-4.836-7.807-5-13 5.323,2.677 2.778,13.222 11,13-3.59,3.446.117,7.474 3,10 3.536-6.548-7.606-14.809-9-23 6.859,9.141 11.574,20.426 18,30 2.826.826 2.591-1.409 5-1-6.055,3.919 1.871,6.799 1,14-3.298-3.316-2.85,10.069 0,10-.666,9.334-2.855,17.145-4,26-3.231-4.774 1.917-12.389 2-20 .1-9.193-3.834-17.744-4-24-2.841-.175 1.209,6.542-3,5-1.476-5.07 4.312-6.188 2-9-2.599-.599-3.599.401-3,3-2.903-1.945-2.594-3.301-7-2-.688,2.688 2.067,1.933 3,3-.758,3.646-3.192-.096-7,1 .43,1.57 3.146.854 2,4-3.213.88-1.37-3.296-4-3-4.197,1.136-6.146,4.521-8,8-.934-.566-1.515-2.78-2-1-1.293-2.996 5.155-6.817 9-8-.016-5.65-3.768-7.565-7-10 .841,3.492 3.342,5.324 3,10-2.815.852-4.103,3.23-8,3 3.983-3.174 2.441-6.558 5-10-6.343-11.657-15.355-20.645-21-33 1.257-8.743 7.622-12.378 12-18-5.364-16.994-35.047-14.92-38-31-1.516,1.016-7.449.045-8-3-4.037,22.478 6.317,44.985 4,68-3.234-3.144-6.082-3.737-8,1h-5c-1.544-2.123-2.877-4.456-4-7-35.771-1.26-82.102-16.039-110-13-2.635.302-3.282-1.385-3-4-3.357.914-.495,1.859-1,5-24.818,2.154-50.402,26.265-78,14 .99-3.01 3.538-4.462 3-9-2.275.725-.298,5.702-4,5 .079-4.921 4.134-5.866 4-11-4.932,2.068-5.422,8.578-8,13-3.506-3.333-11.882.415-14-2 1.049-6.503 8.825-.579 13-1 3.003-5.33 7.306-9.36 8-17-4.488,3.512-5.501,10.498-9,15-1.009-7.021 7.545-13.112 9-21-4.579,5.421-6.854,13.146-13,17 4.063-7.27 9.732-12.935 13-21-6.29,2.71-7.682,10.318-12,15 .192-6.153 8.592-12.732 11-20-3.72,1.296-9.015,9.641-12,15 1.35-9.989 13.722-17.607 18-28 2.163,3.209-3.638,6.995-5,10 2.704,2.312 3.218-6.072 7-6-1.958,3.708-4.904,6.429-6,11 3.174,1.471 2.77-9.202 9-8-1.064,12.927 2.987,19.984 2,28 6.783-4.606-.995-15.72 0-24 5.328,11.339 3.372,29.961 9,41 2.477-7.401-2.871-23.606-3-35 4.371,9.296 2.409,24.925 7,34 1.274-8.617-3.372-19.954-3-31 3.465,8.201 2.962,20.371 5,30 19.984-3.95 34.415-23.219 55-20 2.46-7.345-2.234-18.634 3-24-2.208,6.125-.425,16.242-1,24h3c5.235-11.502-4.068-29.979 2-37 1.746-2.02-.638,14.971 1,26 8.794-2.03.2-31.281 6-42 .05,4.401.688,18.007-1,24 3.188-1.145 2.795-5.872 5-8-.354-1.401-1.761-.086-2,1 1.922-4.091 1.594-19.063 3-27 2.318,4.682.345,13.655 1,20 3.699-.634 3.051-5.615 3-10 2.501,3.889 1.453,14.89 0,20 4.948,3.574.653-10.649 5-11-2.708,14.551-.097,20.252-2,30 6.623-3.563 3.455-17.474 5-21 2.318,4.682.345,13.655 1,20 2.762.428.938-3.729 3-4 .638-3.695-1.295-9.962 1-12v13c5.835-2.067.465-9.383 2-16 1.546-3.057.881,4.338 1,6 7.078-3.024.239-17.109 9-21 2.953.869-2.32,1.497-1,4 .294,2.378 2.706-1.111 3-2 3.291,2.397-3.638,2.949-2,7 1.694,2.271 2.516-4.75 7-3-2.722-2.945-4.581-6.752-6-11-1.757.91-1.829,3.504-3,5-1.756-.862 1.382-5.206 2-7-.027-.973-1.224-.776-2-1 2.436-8.198-3.979-38.195-7-57-1.308-8.14-2.934-14.075-7-19-10.322-1.555-15.994-12.385-16-21h-8c8.863,2.932 5.773,11.226 5,16-4.19-3.227 1-6.228-1-10-1.962-2.705-9.943.61-12-2 .965-2.035 3.84-2.16 7-2-2.342-3.336-8.295,1.481-10-1 3.094-6.764 15.518-1.701 21-4 1.995,3.134 5.08,6.046 11,3-1.603-2.728-5.9,2.132-6-3h13c-.31,1.357-2.504.83-4,1 4.74,1.26 9.884,2.116 15,3-.15-1.85-3.387-.614-4-2 4.533-2.134 13.042-.292 18-2-25.71-4.251-55.49-2.716-79,3 1.706,3.829 7.854-1.96 14,0-.14,2.86-4.171,1.829-7,2 4.223,15.124-11.296,20.402-12,31-1.759-.241-2.279-1.721-2-4-1.313.353-1.573,1.761-3,2 .889.901 3.044.08 3,4-1.44.56-2.44,1.56-3,3-1.172-.162-.843-1.823-1-3-3.586,1.317-.314,3.283-2,6-2.857-1.835-9.856,7.644-12,13-1.701.368-1.887-.78-2-2-1.686,7.647-6.997,11.67-8,20-1.747-2.473-2.207-2.013-2,2-1.701.368-1.887-.78-2-2-.637,5.03-3.784,7.55-6,11-1.172-.162-.843-1.823-1-3-2.141,6.46-3.255,6.148-7,13-.973-.027-.776-1.224-1-2-2.056,2.611-.993,8.341-6,8 3.764,9.09-7.118,12.912-11,20-.973-.027-.776-1.224-1-2-2.285,3.715-2.054,9.946-2,16 5.043-5.29 9.639-11.027 14-17-.513,6.83-10.284,13.042-14,20-2.255-.744-.391-5.609-1-8-3.302,1.031 1.85,10.517-3,10-.332-3.998 1.783-5.551 1-10-3.078.798-3.203,2.008-2,5-3.409.076-2.961-3.705-3-7-2.255.745-.391,5.609-1,8-2.555-.111-1.985-3.349-2-6-2.614,1.387.486,8.486-2,10-3.555,1.555-.604-3.396-3-3-3.038,1.232 1.084,3.438 0,6-1.768.878-2.919,3.17-5,1v4c-3.803,1.524-6.765-1.916-5,3-3.802.802-1.271-4.729-2-7-2.048,2.618-.073,9.26-3,11-1.434-1.232-1.895-3.438-2-6-1.952,4.048-.015,11.985-6,12 1.774-1.893.729-6.604 1-10-2.099,9.226-3.479,19.806 0,27 7.352-2.357 6.921-9.259 14-5-.691,1.975-2.667,2.666-5,3 1.247,3.085 2.584,6.107 0,8-6.162-2.27-4.838-2.011-11-2-1.967-10.306-6.023-21.793-4-33-8.31,3.577-8.589,9.165-12,17 3.027,3.64 8.341,4.993 12,8 1.779,10.856-7.055,27.481 4,34-2.678-.655-3.802-2.864-6-4-2.802.981 1.452,2.668-1,4 .658,2.995 2.138-.956 4,0-1.295,3.219.775,7.457 3,10 2.27-1.063.381-6.286 1-9 3.685,11.937 4.079,24.983 3,35-2.058-9.228-.688-15.859-3-25-1.263,9.956 3.034,22.789-7,31-3.25-1.293 4.82-7.571 5-12-3.486-.13-5.965,9.351-11,11 2.133-6.866 9.695-8.305 9-18-3.845,5.155-6.095,11.905-12,15-.191-4.191 4.909-3.091 4-8-.622-1.828-4.178,1.728-4,4-4.796-2.897 5.221-5.333 4-11-2.244,2.423-4.2,5.133-6,8-2.146-3.849 5.484-6.489 5-12-3.562.771-3.767,4.899-6,7-2.541-3.259 3.973-5.989 4-10-.407-2.49-3.877-.06-3,2-2.374-2.075.899-5.816-1-7-4.085-.302.169,1.385-1,4-3.081.748-1.219-3.447-5-2-1.884.768 3.941,5.388-2,3 4.017,4.623 3.748,7.16 5,12-1.43-.615-6.84-1.308-6-6-1.172.161-.843,1.823-1,3-11.984-6.418-2.17-25.094-4-44 4.464,9.044-.298,20.093 0,32-.715,2.716 4.715-.716 4,2 2.006-4.561 2.981-21.442 2-33-1.501,7.876-.748,20.328-3,30-3.307-6.435 2.645-20.594 1-32 .807.693 2.739,1.556 3,0 4.435,3.554 1.052,14.489 0,19 4.609-2.724 2.447-12.22 3-19 4.898,2.34 5.764-1.337 9-5-32.5,5.451-60.383-5.551-81-18-4.31,15.754-12.496,35.864 5,40-2.541,1.167-8.584-2.719-12-4-3.384-.384-1.574,4.427-6,3 6.81-13.758 2.812-51.683 28-47 7.72-46.279 30.572-77.428 44-118 2.82-.18 1.247-4.753 5-4 4.033-10.301 8.615-20.051 15-28 2.826.826 2.591-1.409 5-1 3.561-2.106 4.979-6.355 7-10 16.028-5.38 23.352-14.394 38-24 11.274-7.394 18.604-15.626 30-8 4.888-1.188 7.169-6.121 14-5 17.718,2.907 38.829,26.352 48,39 11.601-1.847 20.469-2.886 32-3 4.769-9.47 15.727-15.862 27-23 10.609-6.718 20.152-17.79 37-14 7.578-5.062 10.218-12.716 19-19 4.714-3.373 14.033-9.696 17-10 16.022-1.64 24.472,22.188 33,34 9.772,6.228 16.823,15.176 19,29 6.355,15.072 12.31,32.683 17,51 6.155,24.036 6.994,51.49 22,68 17.053-13.249 30.053,1.704 38,14 3.998.332 5.551-1.782 10-1 3.396,5.765 8.878,13.184 9,27-3.624.957-1.017-4.316-3-5-2.847,3.238-.174,9.464 3,10-4.6,2.896.363,9.146-1,15-1.56-2.44-1.79-6.21-4-8zm-40,7c-.53,2.182-2.42,6.468 1,7 .82-2.24 4.08-7.19-1-7zm-6,8c4.295.344 2.706-3.644 2-6 1.003-.003 1.19.81 2,1-.148-3.073 3.519-4.497 1-7-3.18,2.12-6.18,8.74-5,12zm22-14c2.874-2.306 10.243,2.115 11-4-3.024.027-5.771,4.232-6-1-3.213-.88-1.37,3.296-4,3-1.961-5.372-4.857-9.81-8-14 .3,7.37 5.11,10.22 7,16zm-66-116c-2.843-12.824-6.675-24.658-12-35-2.383,9.042 8.414,18.011 7,26-4.108-11.558-9.724-21.61-13-34-.012,1.009-1.753,1.258-2,0 1.24-4.427-.663-3.562-1-9-3.677,5.854 3.496,12.557 2,16-3.194-7.813-8.298-19.026-9-26 1.321.012.914,1.753 2,2 .859-3.242 1.957-12.572-1-6-1.124-3.857 1.796-8.781 0-10 .373.436-.773,2.397-1,2-4.816-8.448-9.256-5.102-14-9-2.94,1.686 3.12,4.494 0,6-.4-2.6-2.984-3.016-3-6h-11c-.489,2.901 4.142,5.752 2,7-3.5.101-6.042-8.336-10-7 1.105.677 5.188,3.323 3,4-3.571-1.428-4.168-5.833-8-7-.211,3.544 4.691,1.976 4,6-3.384-1.644-7.237-8.06-11-6 1.686,1.647 4.494,2.173 6,4-6.098,1.07-7.564-7.732-12-5 2.375.625 4.655,1.345 5,4-6.596-3.248-10.305-2.836-20-6-11.73,2.94-19.716,14.945-30,16 .556.003 1.135-.81 0-1-.39,1.427-1.2,1.687 0,3-6.839.494-7.729,6.937-15,7 .412,3.006-6.599,14.367-5,7-.013,1.987-2.729,1.271-2,4 7.925-.276 10.035.844 16,1 1.976-3.757-5.128-3.383-2-5 2.555.112 3.5,1.833 5,3 5.905-1.452 4.713-4.405 10-7-.292.614-2.487,3.85 0,4-.17-3.954 1.536.32 3-2-.105-5.304-.566-1.182-2,0 .426-7.964 1.752-3.098 5-7-.798,1.869-1.671,3.663-2,6 5.268,1.268 1.244-6.756 4-8 3.633.638-2.32,4.675 1,5 2.074-6.165 4.584-12.941 5-18 3.485.515 1.467,6.534 2,10 6.473,1.078 13.904,12.175 10,4 1.882.53 4.629,5.265 6,3-1.257-.41-2.044-1.29-2-3 1.516,2.818 7.449,1.217 8,5 1.78-.553 4.153-.514 5-2-2.498-1.292 1.058-4.848 4-4-.197,4.023-.124,4.096 3,3-.049,3.049.908,5.092 3,6 .598-1.78-2.931-4.153 0-5 2.864.136-.864,6.864 2,7-.054-1.72.77-2.563 2-3 .221.779.838,1.163 2,1 .694,4.306-.124,10.124 3,12 .959-3.371-3.062-6.831 0-9 8.977,10.666-3.936,21.955-8,27 .016-1.311 2.773-1.274 3,0-2.705,3.962-7.896,5.438-13,7 1.765,3.712 3.041,2.709 3,7-10.341,2.854-25.497-6.537-28-8 3.967,1.76.924,4.349 5,6 .224-.776.027-1.973 1-2 3.026,2.31 9.348,11.156 9,5 1.674,3.025 4.075,3.439 1,4 1.987,1.666 1.271-.09 4,0-2.828,3.371 3.367-.193 4,4-9.403-.597-11.613-8.387-19-11 .455,4.242 8.729,5.898 7,9-6.152-6.853-20.892-10.435-24-17 4.911,2.437 10.752,9.229 16,8-13.696-5.979-20.439-19.696-33-22 2.655,1.012 5.689,1.644 6,5-6.671-4.004-15.913-10.743-24-10 5.237,2.646 7.049,2.593 10,7-1.346,1.654-2.557,3.444-5,4 1.162-3.961-9.563-6.735-15-10-.56,1.44-1.56,2.44-3,3 .168,5.521 7.372,9.265 11,8-1.182-.485-2.268-1.066-3-2 2.555.445 4.598,1.402 6,3-.776.224-1.973.027-2,1 3.141.685 4.086-.115 5,1 1.603,3.936-4.318.348-4,3 27.008,11.325 44.945,31.721 61,54 3.929.071 5.519,2.481 8,4-.658,2.941 3.224,9.453-1,7 .442,3.558 3.62,4.38 5,7 .213-4.58-3.874-10.081-2-13 2.325,5.342 1.896,13.437 6,17-.505-4.522-4.799-10.498-3-14 2.639,3.387 2.608,16.272 7,17-1.728-2.97-4.265-10.362-3-13 1.064,5.417 6.475,20.864 7,17-.806-3.562-4.702-9.252-3-12 1.966,2.581 3.561,8.731 6,6 1.543,3.21-1.347,12.562 3,11-3.79-6.589.121-3.246 0-8 4.093,6.24 6.629,14.038 12,19-1.53-4.804-4.213-8.453-6-13 6.738,5.262 5.909,18.091 17,19-3.069-4.553-7.954-6.433-10-14 4.062,1.271 3.363,7.304 7,9 .772-2.555-3.913-4.598-1-6 2.354,4.979 4.4,10.267 9,13 .093-3.803-5.618-6.991-3-10 2.123,2.904 3.967,11.33 7,10-1.244-1.813-5.069-6.187-3-8 2.413,3.921 3.681,8.986 8,11 .855-2.333-3.497-4.309-1-5 3.753,6.05 8.535,6.516 14,12 .308,8.692 2.784,15.216 8,19v-2c-.224-.776-.027-1.973-1-2-.221.779-.837,1.163-2,1-.003-4.364-3.194-10.761-2-13 1.498,2.169 1.705,5.629 2,9 4.818,5.307-1.997-5.534 1-7 2.405,3.262.853,10.48 5,12 .004-3.062-4.008-7.248-1-10-.062,3.396 1.173,5.494 3,7 12.983-3.684 19.441-13.892 29-21-1.862-.956-3.342,2.995-4,0 1.737-1.646 4.548-7.385 2-10-1.718,1.282-.021,5.979-3,6 3.992-14.546-6.95-26.983-7-40-4,6.913 4.255,14.889 2,20-1.078-3.589-2.516-6.817-3-11-.564-1.781-3.479,7.738-1,9 .156-1.177-.172-2.839 1-3 1.328,3.74-2.981,6.913 0,9 .096-1.571-.134-3.467 2-3-.311,2.009-2.312,10.778 0,9-.279-2.279.241-3.759 2-4 .16,3.16.035,6.035-2,7-5.759-7.879-6.938-19.692-3-30-4.266.734-1.311,8.689-4,11-3.553-7.317-3.275-12.572-7-20-.553,1.78-.514,4.153-2,5 1.154-3.249-3.055-6.151 0-8 .171,1.496-.357,3.69 1,4 1.729-7.228.224-18.528-3-24-3.098,4.522 3.38,10.498 1,14-4.473-10.032-6.182-26.937-4-33-2.07,1.6-1.23,6.1-3,8zm4,6c1.014-.998.377-5.452-1-7-.91,2.56-1.62,5.67 1,7zm-64-89.999c.237,3.096 2.782,3.884 4,6 .34-3.67-1.54-5.131-4-6zm15-26c.292.614 2.487,3.85 0,4-1.927-3.74-2.379-8.955-7-10-12.24,7.093-25.716,12.951-32,26 4.639,1.22 8.413-2.639 9,1 1.112-3.791 3.958.361 5-3 .138,1.862.658,3.342 2,4 2.833-2.653 7.307-11.553 10-8 .016-2.651-.555-5.888 2-6 .521,1.574 3.851,5.355 1,7-.171-1.496.357-3.69-1-4 .69,4.073-4.527,7.406-2,10 .783-4.159 6.604,2.277 10,2 3.619-5.597-2.225-14.87 1-20 1.672,5.661-.993,15.66 3,19-1.48-7.756 3.17-20.999-1-22zm5,3c-1.475-4.418-4.537,12.601-1,19 1.8-6.392 2.75-13.757 1-19zm4,21c.592-4.508.652-16.47-3-20 3.53,6.107-2.88,17.795 3,20zm4,1c-1.335-4.392 2.991-8.265 0-11-.156,1.177.172,2.838-1,3 .166-3.499-.266-6.401-2-8 .43,5.901-.34,13.008 3,16zm7,2c-2.3-2.701.959-10.959-3-12 2.06,2.936-1.09,11.089 3,12zm-6-1c3.349-.646 3.857-7.76 1-9-.04,3.291-1.69,4.978-1,9zm-88,6c-9.23,6.11-2.691,2.405 4-3-3.2-.206-2.98,2.325-4,3zm100,10c.173-2.506-2.239-2.428-3-4 .729,4.381-1.987-.806-2,2 1.665-.671 1.062,13.15 4,8 .73,4.334 2.664,10.601 4,17 1.365-4.379.124-5.142-1-9 2.306-.306 1.111,2.889 3,3 .475-4.07-3.714-6.786-1-10-3.89-.048-10.43-11.661-4-7zm6,34c1.591-4.817 3.406-12.714 0-17-.3,4.726-2.56,12.739 0,17zm4,0c1.738-1.856 1.289-7.166-1-8 .61,2.391-1.26,7.255 1,8zm10,10c.166-3.499-.266-6.401-2-8-.17,3.499.27,6.401 2,8zm-1,4c-.772-2.561-.998-5.669-3-7 .29,3.044-.16,6.825 3,7zm10,17.999c.16-3.16.035-6.035-2-7-.16,3.16-.04,6.04 2,7zm-3,7c.851-.835 2.739-7.815-1-7 .6,2.07-1.24,6.57 1,7zm2,7c-.119-4.305 5.339-10.785 1-13 1.44,6.75-5.67,8.64-1,13zm2,6c-.383-5.135 5.459-9.791 1-13 2,6.04-4.66,8.62-1,13zm3,18c1.944-3.056 2.284-7.716 2-13 3.48,2.671 3.782-8.316 0-9 2.42,10.51-7.42,14.49-2,22zm-2-10c1.146-1.265 2.009-7.885 0-9-.41,2-2.48,7.42 0,9zm8,7c-.619-2.714 1.27-7.936-1-9-1.3,2.91-1.26,7.06 1,9zm-2,14c-2.119-5.239 1.848-10.965-1-16-2.82,5.07-2.06,14.58 1,16zm13,15c5.495-1.508 2.706,6.923 4,10 .725-6.546.892,5.076 2,1-.475-4.725 1.247-1.863 3-1-1.798-5.219-6.262-13.05-10-13 1.16.17 1.09,1.58 1,3zm13,0c-.793,2.207-4.7,1.3-5,4 2.6,3.066 6.807,4.526 9,8-.127-4.207-3.873-4.793-4-9 6.94,10.26 7.69,3.48 0-3zm7,4c-.17-4.217 1.536.018 3,0-1.111-4.139-1.56-3.691 3-3 .129-6.672-6.589-2.697-10-2 .01,2.99 1.8,4.2 4,5zm6,13c.446-1.966 3.71-6.185 1-8 0,3.09-5.72,6.2-1,8zm-18,1c3.917-.083 2.583-5.417 4-8-3.69.31-1.75,6.25-4,8zm-2,3c-.004-3.062 4.008-7.248 1-10 1.24,4.3-3.89,7.36-1,10zm14-2c-.475,3.141 1.247,4.086 3,5-.851-3.656 4.607-5.357 0-7 .54,4.84-.85,3.8-3,2zm9,14c.625-5.229 1.345,2.112 4,1-.254-3.746-1.569-6.431-4-8-.69,1.48-1.28,8.47 0,7zm13,1c.197-2.863.124-5.458-3-5 .33,2.33 1.02,4.31 3,5zm-1,5c.537-3.537-.848-5.152-3-6-.04,3.04-.58,6.58 3,6zm-8,0c-.52-1.263-2.438-6.073-4-3 2.543,1.457 1.937,6.063 5,7-1.223-4.557 2.743-3.924 2-8-4.96-.42-.56,3-3,4zm6,5c.197-2.863.124-5.458-3-5 .12,2.55.19,5.15 3,5zm18,2c.024-3.69-.447-6.886-4-7-.02,3.69.45,6.89 4,7zm-9,0c2.304-2.211-1.736-2.503-3-4-.292.613-2.487,3.85 0,4 .212-1.122 1.109-1.557 2-2 .22.78.03,1.97 1,2zm13,6c-.116-3.551.723-8.056-3-8-.35,4.02.02,7.32 3,8zm-4,3c.454-4.787-1.086-7.581-4-9-.38,4.71 2.4,6.27 4,9zm-5,19c5.734-4.494 1.6-23.051-3-27-3.565,2.737-.984,9.928 2,12-.52,3.418-4.211,11.121 0,13 .105-2.562.566-4.768 2-6 .22,3.22-1.77,4.23-1,8zm-25-23c.877,4.587-4.797,7.812-2,11 1.81-2.142-.19-6.539 4-4 .55-3.66 1.21-5.36-2-7zm2,10c3.676.963 3.976-4.913 1-5 .41,2.41-1.83,2.17-1,5zm17,11c-.924-3.772-8.451-6.176-7-9 3.276,3.112 4.724,1.888 8,5 .152-4.129-4.842-11.148 1-7 .1-3.1-.453-5.547-2-7-1.191,2.869-6.776.629-4,5-5.125.116-6.688-.723-4,3-2.333.855-4.309-3.497-5-1 4.58,3.42 7.48,8.52 13,11zm-8-5c-2.909-2.757-6.648-4.686-12-5 1.23,4.46 10.67,2.58 12,5zm14,17c-.225-1.891 1.127-2.206 1-4-1.278-.055-1.385-1.282-3-1-.15,2.48-.19,4.85 2,5zm3,4c.434-2.224 2.298-5.423-1-6-1.38,1.28-1.74,5.98 1,6zm5,5c.353-4.019-.016-7.317-3-8-1.5,3.18-1.5,8.14 3,8zm-235-193c-2.041-.492-2.363-5.514-2-3-1.888,3.731-4.534-5.31-7-1 3.21.496 7,5.613 9,4zm133,130c-2.323-.677-2.677-3.323-5-4-.224.776-.027,1.973-1,2 .877-2.06-2.594-4.49-3-2 5.196,3.138 7.39,9.277 13,12-.521-3.846-2.329-11.626-5-10 .78.22 1.16.84 1,2zm-51-23c-.717,1.064-3.904,4.605-1,6 .17-1.61 3.36-5.15 1-6zm-188-137c1.221-4.468 6.479-10.158 5-14-4.134,4.533-4.619,12.714-9,17 1.209-4.812 5.529-11.777 5-15-5.425,6.242-5.455,17.878-12,23 3.21.877 2.073-2.593 4-3 .598,1.78-2.931,4.153 0,5 .055-1.052 1.282-.787 1,1 4.723.056 5.841-3.492 9-5-1.035,2.632-3.965,3.368-5,6 6.492-2.508 9.147-8.853 13-14 .916,4.626-5.734,6.875-4,9 5.184-4.47 8.571-14.417 13-14-.324-4.474-2.107-8.245 2-10-1.586,2.37-1.462,4.911 2,3 2.308,7.109-.447,16.308 7,21-1.418-9.194-3.715-22.073-11-27-2.534,2.799-1.649,9.017-6,10 1.887-3.447 2.957-7.709 5-11-4.058,1.275-3.987,6.68-7,9-.1-4.766 3.334-5.999 4-10-5.742,2.591-5.392,11.275-10,15 .036-4.661 5.24-9.387 4-12-4.83,3.836-4.89,12.445-10,16zm-58,16c-.102-1.122 1.454-1.557 0-2-11.931,7.735-12.13,27.203-23,36-.182-3.892 5.375-7.234 3-10-.897.885-1.554,6.957-3,4 1.666-5.001 4.74-8.594 6-14-5.234,2.433-8.108,7.225-8,15-5.322,3.011-5.317,11.35-11,14-13.094,40.572-36.85,70.483-44,117 5.434,2.393-7.677,16.01 2,17 1.542-3.458-.517-10.517 4-11-1.995,3.005-1.337,8.663-3,12 5.718.719.858-9.143 5-10 .271,2.141-.774,10.668 1,8 .02-2.98-.093-6.093 3-6-.582,2.476-3.623,7.634-1,10 .567-3.1-.272-7.605 3-8-.042,3.292-1.688,4.979-1,9 1.314,1.02 3.686.98 5,2-.814-2.729-2.686-5.012-4-2-.16-3.16-.035-6.035 2-7 1.986,2.696 1.509,4.299 5,1 .22,3.22-1.769,4.231-1,8 4.563,1.23-.093-6.76 3-7 2.246-.77.027,7.778 2,4-.868-4.505 1.673-4.629 3-2 1.8-2.867 2.635-6.698 5-9 .224.776.027,1.973 1,2 4.861-8.139 14.124-11.876 21-18 .08,2.813-6.858,3.719-4,6 8.347-7.653 19.321-12.679 26-22 .395,1.721-1.484,2.563 0,3 2.585-5.48 6.599-3.861 8-11 3.509.274-2.509,3.726 1,4 1.759-1.574 1.311-5.355 3-7 3.377.406-2.661,3.877 2,3 2.108-10.888 17.487-20.702 23-28-1.326,1.674-2.649,3.351-2,7 6.431-1.796-.968-11.486 5-13 .547,1.453-1.168,5.168 1,5 .724-6.545.892,5.076 2,1-2.229-4.16 2.019-8.63-2-11 4.329-1.338 6.274-5.06 10-7 1.275,2.503-.509,3.13 1,4 .63-10.308 4.271-5.332 4-5 1.386-1.7-1.693-4.617 3-6 .01,1.466-.378,8.183 1,5 .033-6.634.938-12.396 4-16-.836,3.822-.785,8.95 0,12 .054-4.076 2.77-14.174 3-14 2.85,2.153-.846,7.687 1-1 4.373-.294 6.558-2.775 8-6-2.717-.004-4.683,4.205-6,0 8.033-4.722 13.142-8.426 18-12 1.386.614.15,3.85 2,4-.708-4.689 2.017-6.579 7-6 .516-2.867 5.235-6.698 3-9-1.713,1.62-.387,6.28-4,6-2.021-1.694-2.886-6.676 0-8 .956,1.862-2.995,3.342 0,4-.111-2.845 6.671-3.905 7-3-.718.825-3.135,6.468-1,4 1.963-1.37.637-6.03 4-6 .541-3.541-3.541-2.459-3-6 2.711-.622 2.489-4.178 6-4 .376,2.471-6.247,2.959-3,5 2.116-1.217 2.904-3.763 6-4-1.125,5.574-4.566,2.92-5,7 6.148-5.082 7.574-8.693 12-18-8.712-3.203-16.325,2.878-17,11-5.304-1.318-2.221-7.104-4-9-.39,1.427-1.2,1.687 0,3-3.658-.658-3.836,2.164-7,2-9.875,10.458-23.642,17.024-33,28-.454,1.201 6.771-6.311 11-7-4.096,2.92-9.819,9.493-14,9 .555.003 1.135-.81 0-1-.538,1.683-1.753,5.107 1,3-1.286,1.714-2.068,3.932-5,4-.534-1.44 3.897-2.44 1-3-.076,2.57-4.659,1.43-2,4-9.083-.846-21.848,13.21-31,9 4.595-.405 8.871-1.129 11-4-4.403-.836-10.247,4.9-14,4 2.288-3.046 7.288-3.379 10-6-3.982-1.249-7.043,3.534-9,1-.168-2.168 3.547-.453 5-1 1.617-4.994.87-10.814 0-16 4.35.434 1.018-14.799 6-17-.82,6.528-4.781,15.199-2,22 1.187-6.284 1.033-19.5 5-26 .112,4.989-4.772,16.597-2,24 1.851-9.781 1.813-22.285 5-28 .781,10.124-5.245,18.742-2,28 .427-4.573 1.521-8.479 1-14 1.376-.043 2.196.471 3,1-1.033-7.566-1.639-17.489 2-23 .216,13.824.459,4.901 2-2 .224.776.027,1.973 1,2 .595-2.072-1.236-6.569 1-7 .627,3.04-1.28,8.613 1,10 2.656-2.344-.739-10.739 2-13 1.827,2.323-1.953,8.09 1,11 .459-6.271 1.136-7.307 1-15 7.361-2.315 9.894-14.761 11-20-4.079,2.938-8.302,11.01-8,15 .616-2.717 1.983-4.683 4-6 .178,4.933-11.901,15.992-8,9-3.982-.267-7.043,2.52-9-1 3.146.479 3.909-1.424 6-2-1.008,3.008 2.228,1.772 4,2 .541-4.817 6.122-9.845 5-13-2.586,2.414-2.798,7.202-6,9-.786-2.655 5.753-5.689 1-6-2.458,7.218-12.871,11.784-20,11 5.217-1.783 10.88-3.12 15-6-7.395,1.271-12.463,4.87-19,7 3.682-4.318 11.188-4.812 16-8-14.39,2.609-23.26,10.739-36,15.001zm40,90.999c2.41,2.426 3.74-1.335 5-3 1.003-.003 1.19.81 2,1v-3c-3.13.87-5.52,2.48-7,5zm37-66.999c4.402-.956 9.835-6.131 10-8-4.18,1.822-6.54,5.463-10,8zm13-46c-2.503,2.996 5.022,8.603 3,11-4.306-4.027-4.091-12.576-8-17 1.226,9.774 4.667,17.333 9,24 .276-1.753-2.816-4.99 0-6 .924,1.743-.034,5.367 3,5-.831-4.659-2.957-10.541-3-13-1.55,2.756-2.75-3.157-4-4zm-41-10c-8.499,3.576-16.29,12.942-24,14-1.02,1.314-.98,3.686-2,5 11.724-4.613 27.503-10.492 31-20-2.178,4.086-2.776,2.075-3,0 .05,2.469-4.36,4.458-2,1zm46,10c2.916,5.172-.741,14.106 6,17-1.58-6.086-2.57-12.762-6-17zm9,15c-1.771-5.229-3.512-10.488-6-15 1.83,5.167 1.26,12.744 6,15zm8,6c.15,2.483-.517,4.15-2,5 1.283-6.31-3.819-11.478-2-15 2.135,2.198.791,7.876 4,9-.619-2.714 1.27-7.936-1-9-.17,1.496.357,3.69-1,4-.311-3.023 1.11-7.777-2-8-.982,1.352-2.668,1.999-4,3 1.747,4.92 3.216,10.118 3,17 4.51,1.45 7.41-3.846 5-6zm104,0c5.992-4.899-3.284-8.494-8-9 .299,1.966-1.351,1.983-2,3 2.279,1.373 3.759-2.578 4,0-.243,4.16-4.978-1.88-4,4 1.862.956 3.342-2.995 4,0-.933,1.067-3.688.311-3,3 2.555.112 3.5,1.833 5,3-2.545-.516-3.878-1.704-4,2 1.742-.075 3.11.223 4,1 .113-1.22.299-2.368 2-2-1.15,2.693 4.797,4.807 2,3-.055-1.278-1.282-1.385-1-3 3.458-.812 4.222,1.867 6,0-.13-4.066-4.06-4.338-5-5zm-151-1c1.029-1.705 6.872-3.705 4-6-.31,2.422-6.15,4.422-4,6zm6,3c2.707-1.331 5.906-7.376 5-9-1.51,3.159-5.06,4.277-5,9zm7-8c-.81,3.523-4.027,4.64-4,9 2.6-1.335 7.79-7.544 4-9zm105,8c9.495.026 13.122.383 22,0-.661-2.672-.419-6.248-2-8-5.63,1.568-13.44,4.623-20,8zm-79,5c.157-1.177-.172-2.838 1-3 .157,1.177-.172,2.838 1,3 .155-3.822-.052-7.282-2-9 .96,3.371-3.06,6.831 0,9zm128,3c.719-3.319 4.821-8.461 2-12 .51,4.551-5.14,8.141-2,12zm-152-2c6.521-.769 12.981,1.288 17,0-1.857-7.335-6.485-4.389-9-9-.86,3.946-6.84,1.335-8,9zm-34,2c-.271-2.141.774-10.668-1-8 .27,2.14-.77,10.668 1,8zm182,2c-1.266-2.734-1.583-6.417-3-9 .14,5.807-3.757,7.577-10,7 4.283,6.717 15.323,6.677 12,21 7.549-4.118 13.566-9.767 19-16 .135-4.802-.761-8.573-4-10-1.127,5.207-7.776,4.89-12,7-1.76-5.795-1.08-2.632-2,0zm-159,0c2.863.197 5.458.125 5-3-3.14-.475-4.09,1.247-5,3zm6-2c-.043,1.376.471,2.196 1,3 9.081-1.9 12.662,2.643 18-3-6.59.669-15.3-1.016-19,0zm142,4c-4.413-.254-5.269-4.064-9-5-.053,3.053 3.602,2.398 3,6 3.54-.88 5.15,2.568 6-1zm-17,3c-1.581,1.481-3.47,5.168 1,5-.136-3.198.985-7.652-3-7-1.889.111-.694,3.306-3,3-.409-2.409 1.826-2.174 1-5-2.655.345-3.375,2.625-4,5 4.17,1.068 5.06.907 8-1zm-141,21.999c1.446-7.332 7.443-20.407 5-25-2.18,7.161-6.88,17.108-5,25zm4-3c6.42-7.58 14.259-13.741 21-21-5.753.086-11.549.216-16-1-2.04,6.305-6.37,15.616-5,22zm-21-16.999c2.967-.366 4.933-1.733 6-4-3.77-.433-4.55,2.112-6,4zm17-1c.048,4.715-1.756,7.577-2,12 .055,1.052 1.282.787 1-1 .319-2.348 1.58-3.753 1-7 1.343-1.069 3.963-5.931 2-7-.48,1.181-1.07,2.267-2,3zm-6,24.999c.22-9.123 4.911-19.076 4-26-1.27,8.074-6.46,17.52-4,26zm159-12.999c1.232-2.101 2.768-3.899 4-6-.61-.057-1.184-.149-1-1h-2c.31,2.407-4.36,4.842-1,7zm6-8c.871-4.205-3.321-3.346-5-5 .334,3.067-5.69,4.887-2,8 1.703-1.964 2.335-4.998 5-6-.05,1.72.77,2.563 2,3zm-168,24.999c-1.092-10.102 4.251-19.068 3-26-1.67,6.786-6.24,20.93-3,26zm168-14.999c7.29-5.226 2.68-9.834 0,0zm1-7c-3.799.535-4.769,3.898-6,7 4.44.102 5.41-3.261 6-7zm-47,21.999c3.921-.746 5.379-3.955 7-7-2.933-1.15-3.714,4.796-5,2 .013-1.987 2.729-1.271 2-4-3.928.809-7.973-7.403-9-3 4.95.72 5.48,5.85 5,12zm-4-7c2.236,2.097.764,7.903 3,10 .76-3.09.01-11.31-3-10zm12,1c-2.992,3.007-4.071,7.928-9,9-.1,3.1.453,5.547 2,7 3.95-4.717 8.108-9.225 12-14-5.404-1.488-7.256,8.562-13,10 1.6-4.42 9.48-7.83 8-12zm-7,19c.271,4.901.417,5.341 3,6-1.743,1.728-1.107,6.182 1,7 3.631-7.376 10.845-16.479 16-19-5.282,6.051-10.542,12.125-15,19 .521,1.574 3.851,5.355 1,7-2.983-.016 1.41-7.411-3-6 .91,4.423-.264,10.93 3,13 5.83-9.841 16.946-19.715 20-29-5.106,6.233-11.67,16.321-17,19 4.563-8.104 12.528-12.805 17-21-1.912-2.754-4.246-5.087-7-7-4.531,4.812-10.091,13.896-15,15 3.805-6.528 11.84-8.827 14-17-7.413,1.265-8.649,14.002-16,12 6.137-2.863 9.495-8.505 13-14-1.278-.055-1.385-1.282-3-1-3.08,6.25-8.88,9.79-12,16zm25,3c-5.276,12.653-26.136,23.208-15,40 4.074-3.605 7.952-12.697 12-13-3.652,6.123-12.062,12.457-13,18 4.551.199 7.24-10.08 13-12-3.141,5.859-8.987,9.013-11,16 5.081-.919 5.797-6.203 9-9 .355,6.275-8.434,7.887-6,13 10.914-5.09 11.771-25.557 12-38-4.32,7.02-11.021,16.97-17,19 6.463-7.209 17.33-15.33 17-26-4.75,7.25-8.973,15.027-16,20 4.07-9.08 19.12-17.34 15-28zm-177-7h2v-8h-2v8zm183,19c2.892-.441 4.559-2.108 5-5-1.181-1.486-.865-4.468-4-4 .598,1.78-2.931,4.153 0,5-.279-2.279.241-3.759 2-4 2.07,3.74-1.46,5.17-3,8zm2,5c.312-1.783 5.288-3.917 2-6-.51,2.42-6.55,4.42-2,6zm5,7c-.325-2.408.854-11.43-1-9 .32,2.41-.85,11.43 1,9zm7-5c-1.585,1.496-.736,4.09 1,5 .212-1.122 1.109-1.557 2-2-.134-2.6-4.056-6.521-5-5 1.12.21 1.56,1.11 2,2zm-11,11c.221-.779.838-1.163 2-1-.17-1.496.357-3.69-1-4-.29,1.18-4.03,3.78-1,5zm15,0h3c-.228-1.772 1.008-5.008-2-4-.31,1.35-1.42,1.91-1,4zm8,12c3.133-4.928-1.879-9.12-4-12 .171,1.496-.357,3.69 1,4 2.03-.6 2.16,5.98 3,8zm-24-10c.547,1.453-1.169,5.168 1,5 .717-1.065 3.904-4.606 1-6-.22.78-.84,1.16-2,1zm9,3c-.057-.61-.149-1.184-1-1v2c.057.61.149,1.184 1,1 .622-2.711 4.178-2.489 4-6-3.72-1.05-1.96,3.37-4,4zm0,6c.313-2.099 6.714-3.18 3-6-.31,2.1-6.71,3.18-3,6zm9-3c1.375-1.283 1.741-5.979-1-6 .58,1.76-1.21,5.88 1,6zm-22,4c.717-1.064 3.904-4.606 1-6-.72,1.07-3.9,4.61-1,6zm10,17c-9.915,13.418-19.283,27.383-30,40 .609,2.391-1.256,7.255 1,8 12.184-16.151 23.531-38.467 37-50-12.019,15.315-23.221,31.445-34,48 2.923.744 1.936,5.398 6,5 .099-3.538 1.92-4.383-1-6 9.189-11.477 16.505-24.828 26-36-6.437,12.896-16.117,22.55-23,35 5.363-.6-4.542,7.422 1,7 2.207-.793 1.3-4.7 4-5 .409,2.409-1.826,2.174-1,5 19.209.791 37.131,2.869 52,8-3.06-13.312-4.056-30.952-3-43-2.812-.146-2.884,2.449-3,5 1.672,1.651.897,18.678 1,26-1.679-9.51-.618-16.214-3-24-.224.776-.027,1.973-1,2-1.146-4.528 4.481-7.451 1-11-.226,4.108-2.118,6.549-4,9 .182-6.502 7.221-11.423 4-18-2.542,4.791-3.101,11.566-8,14 3.668-9.332 10.031-15.969 13-26-7.17,3.505-7.932,18.725-14,20 3.883-7.117 8.354-13.646 11-22-7.278,3.055-7.027,13.639-14,17 2.734-6.212 12.979-14.637 9-21-2.658,4.69-6.219,13.762-10,14 4.107-4.233 11.139-14.796 3-20 2.598,8.745-5.795,17.393-10,19 2.77-4.603 12.096-10.91 8-16 1.062,3.796-2.956,7.621-4,6 .521-1.574 3.85-5.355 1-7-.096,1.571.134,3.467-2,3 .434-2.224 2.298-5.423-1-6-2.754,3.149 1.681,7.542-1,10-1.512-2.892 1.462-4.559-3-5-.595,2.071 1.236,6.569-1,7 .146-4.48-.107-8.559-2-11-7.312,3.422 3.702,15.398-5,18-.154-2.487 1.571-3.096 2-5-4.48.34-4.03,3.42-2,6zm-4-2c-1.432,2.284-4.511,5.052-1,7 1.1-1 3.75-5.45 1-7zm1-7c-2.187,1.813-4.638,3.362-4,8 3-.39 5.77-6.16 4-8zm-25,35c-1.497,1.908-6.025,10.083-1,12 1.32-2.39 3.71-8.9 1-12zm23-37c.997-1.336 2.703-1.964 3-4-3.09-1.31-5.67,2.84-3,4zm5,4c.938-.845 2.136-6.375 0-7-.94.84-2.14,6.38 0,7zm-11,12c1.555-1.502 5.106-6.15 2-9-1.56,1.5-5.11,6.15-2,9zm-28-1c1.303-3.148 1.155-6.707 0-9-.9,2.97-1.54,6.14 0,9zm-26,5c1.225-2.813 4.892-8.391 2-12-.51,3.53-3.8,9.48-2,12zm33-6c.924-1.882 5.336-4.629 1-6-.72,1.06-3.9,4.61-1,6zm-162,3c1.049-1.685 5.03-5.547 3-7-.66,2.08-5.73,4.84-3,7zm180,2c.817-.726 2.683-6.921-1-6 .58,1.76-1.21,5.88 1,6zm2,3c-3.97,1.034-10.992,6.231-8,14 3.177-6.832 13.32-12.002 11-21-.93,2.4-4.02,2.65-3,7zm-6,2c1.812-1.12 3.65-7.319 0-8-1.06,1.04-2.06,7.14 0,8zm-13,3c2.522-2.576 1.974-7.246 1-10-.426,1.907-2.857,1.81-2,5 5.31-.49-3.32,3.54 1,5zm5-4c.717-1.064 3.904-4.605 1-6-.72,1.06-3.9,4.61-1,6zm-171,0c2.582.487 5.669-3.537 3-5-.31,2.36-3.47,1.86-3,5zm129,4c.514,2.927-4.979,4.915-2,7 2.866-4.363 3.717-9.854 2-15 .105,4.105-3.997,4.003-3,9 2.69,1.78 1.93-4.4 3-1zm-2,13c1.149-1.585 5.227-5.351 2-8-.32,2.41-5.26,5.31-2,8zm4-6c3.604-.557 4.796-7.779 2-9-1.07,2.59-2.43,4.9-2,9zm3-15c-.645,1.768-4.932,4.962-2,7 .22-2.19 4.51-5.38 2-7zm3,8c.222-1.873 2.578-6.627 0-8-1.06,1.04-2.06,7.14 0,8zm93-1c.299-3.296 3.458-4.997 0-7 0,1.79-2.69,5.82 0,7zm-238,2c1.244-1.812 4.687-6.569 3-8-.87,2.19-5.34,5.92-3,8zm166-3c.426-1.907 2.857-1.81 2-5-2.97-1.19-4.3,4.22-2,5zm18,2c1.364-1.349 1.906-6.981-1-7 .6,2.07-1.24,6.57 1,7zm-4,5c1.975-1.116 3.652-8.267 0-9-2.65,1.8-1.62,6.24 0,9zm-14-1c.717-1.064 3.904-4.605 1-6-.72,1.06-3.9,4.61-1,6zm9,6c1.95-1.897 4.785-5.83 1-8-1.43.98-3.6,6.3-1,8zm-13-2c-.501,11.695 1.877,1.762 2-5-3.4.45-2.02,5.39-2,5zm3-3c.547,1.453-1.169,5.169 1,5 .239-1.427 1.646-1.687 2-3-.776-.224-1.973-.027-2-1 1.086-.239 2.401-1.646 1-2-.22.78-.84,1.16-2,1zm-7,6c.717-1.064 3.904-4.605 1-6-.72,1.06-3.9,4.61-1,6zm21,4c4.13-.214 5.527-7.97 2-10-2.35,1.66-2.17,5.84-2,10zm-133,4c2.97-3.223 1.849-9.559 1-13-3.19,6.44-.1,6.92-1,13zm125-5c1.194-1.738 3.898-7.072 0-8-1.939,3.226-.094,7.601-4,5-.507,3.159-2.943,4.39-3,8 6.58.25 2.1-8 7-5zm-27,1c-.004-1.786 2.693-5.817 0-7 0,1.79-2.69,5.82 0,7zm3,3c.623-3.087 6.24-6.368 3-10-1.56,2.15-5.88,6.73-3,10zm6-1c.815-1.597 3.791-6.103 1-8-.36,2.05-3.34,6.55-1,8zm6,2c2.451-1.759 2.329-5.998 0-8-1.81,1.12-3.65,7.32 0,8zm-30,5h4c-1.146-7.47-1.177-6.087-1-12-2.93,2.07-3.51,6.49-3,12zm-88-3c.357-2.377 4.826-5.751 2-8-.32,2.41-5.26,5.31-2,8zm94-2c.409-1.686 4.711-4.494 2-6-.31,1.78-5.29,3.92-2,6zm12,8h4c.877-4.661-2.594,1.377-3-2 1.64-1.418 4.749-6.508 2-9-2.76,4.29-4.98,5.79-3,11zm5-3c4.04-.712 4.329-7.134 3-8-1.46,2.2-3.04,4.3-3,8zm21,8c.368-3.388-1.243-8.941 0-15-1.377.043-2.196-.471-3-1 1.19,5.14-2.84,15.5 3,16zm71,6c-2.085-5.695 1.235-16.378-3-22-.05,7.73.92,19.73 3,22zm-108-12c2.651-.016 5.888.555 6-2-1.322-.012-.914-1.753-2-2 .599,2.599-.401,3.599-3,3-.004-1.786 2.693-5.817 0-7-2.2,2.74-3.71,4.93-1,8zm-94,1c-.563-2.658 4.113-5.092 1-7-.52,1.58-3.85,5.36-1,7zm115-6v4c3.631,1.536 5.54-3.666 3-5-.17,1.17-1.58,1.09-3,1zm11,10c1.767-1.674-.888-3.351 0-7h-3c.35,2.98.58,6.09 3,7zm-269,0c-2.108-4.977 8.358-3.548 11-5-4.502-3.79-17.706,3.86-11,5zm143,3c-.1-2.834 3.964-6.613 2-8-.94,1.79-5.02,5.56-2,8zm6,4c-.384-3.767 4.369-7.564 1-11-.22,3.17-4.01,7.93-1,11zm5-5c2.733-2.963-2.334,5.356 1,6 .396-2.177 3.214-10.656-1-11 .6,1.78-2.93,4.15 0,5zm-108,7c2.026-3.332 8.249-7.719 7-11-1.033,4.33-8.195,7.77-7,11zm13,0c.604-2.129 4.208-6.368 2-8-.604,2.13-4.208,6.37-2,8zm84,3c4.131,1.719 5.361-4.533 3-6-.138,1.862-.658,3.342-2,4-1.496-4.229 4.151-6.426 1-9-1.21,4.83-3.48,5.37-2,11zm-65,1c.46-4.902 4.54.591 5,2 .224-.776.027-1.973 1-2-1.083-4.917-6.414-5.586-10-8 2.525,3.06 3.448,7.22 4,8zm-38,4c3.412-.588 2.468-5.532 5-7-3.763.24-3.899,4.1-5,7zm4,1c3.284.551 3.872-6.705 3-7-1.028,2.31-3.442,3.22-3,7zm5,0c1.758-.575 5.875,1.209 6-1-6.401,2.191-.164-8.164-3-5-.897,2.1-1.554,4.45-3,6zm29,41c.077-2.336 4.259-5.635 1-8-.962,2.88-4.681,5.94-1,8zm2,3c.229-1.554 3.844-4.666 1-6-.229,2.58-5.159,4.81-1,6zm2,3c.229-1.553 3.844-4.666 1-6-.229,1.55-3.844,4.67-1,6zm0,7c.225-3.158 5.819-6.115 3-9-.82,2.56-6.198,5.74-3,9zm326-50c1.271-3.366-5.071-4.134-6-2 1.78.89 2.54,2.79 6,2zm-7,6c1.337,3.996 3.299,7.368 8,8 2.135-5.135-5.092-.908-4-5 1.54-.357 5.371.753 9-1-3.76-3.47-7.48-.88-13-2zm18,3c1.477-3.162-5.746-4.809-5-1 1.16.84 2.68,1.32 5,1zm-20-36c-3.232-.768-5.232-2.768-6-6 2.039.294 1.961,2.706 4,3-.44-4.56-2.886-7.114-7-8-5.133,2.418-14.695,12.249-7,18 .016-1.651 2.773-.56 3-2-1.543-.239-4.792-3.718-2-5 1.566,1.434.787,5.213 4,5 1.636-2.027-4.272-5.018-4-9 3.64,1.36 2.909,7.091 7,8-.866-4.134-4.134-5.866-5-10 3.583,2.083 3.383,7.95 8,9-.222-3.489-5.438-7.171-4-9 3.09,1.88 5.62,10.47 9,6zm-1,33c-2.217-3.142-5.166-10.801-8-10 3.17,2.19 5.96,10 8,10zm13-1c-.036-3.298-2.844-3.823-6-4-.92,4.25 2.4,4.27 6,4zm-1,8c2.551-.116 5.146-.188 5-3-1.74.92-5.37-.03-5,3z" fill="inherit"/></g><g id="change2_27"><path d="m415,316.08c-4.11-3.89-6.167-9.833-9-15-.553,2.916 2.344,10.967 5,14-13.947-7.748-12.733-40.439-1-53-8.33,14.42-6.44,39.75 5,54zm-11-22c-.509-3.491-.45-7.55-2-10-.56,3.54-2.34,9.06 2,10z" fill="inherit"/></g><g id="change1_116"><path d="m468,237.08c2.519,2.503-1.148,3.927-1,7-.81-.19-.997-1.003-2-1 .706,2.356 2.295,6.344-2,6-1.18-3.26 1.82-9.88 5-12z" fill="#fff"/></g><g id="change1_117"><path d="m422,111.08c-2.182,6.063-.473,22.968 4,33 2.38-3.502-4.098-9.478-1-14 3.224,5.472 4.729,16.772 3,24-1.357-.31-.829-2.504-1-4-3.055,1.849 1.154,4.751 0,8 1.486-.847 1.447-3.22 2-5 3.725,7.428 3.447,12.683 7,20 2.689-2.311-.266-10.266 4-11-3.938,10.308-2.759,22.121 3,30 2.035-.965 2.16-3.84 2-7-1.759.241-2.279,1.721-2,4-2.312,1.778-.311-6.991 0-9-2.134-.467-1.904,1.429-2,3-2.981-2.087 1.328-5.26 0-9-1.172.161-.844,1.823-1,3-2.479-1.262.436-10.781 1-9 .484,4.183 1.922,7.411 3,11 2.255-5.111-6-13.087-2-20 .05,13.017 10.992,25.454 7,40 2.979-.021 1.282-4.718 3-6 2.548,2.615-.263,8.354-2,10 .658,2.995 2.138-.956 4,0-9.559,7.108-16.017,17.316-29,21-1.827-1.506-3.062-3.604-3-7-3.008,2.752 1.004,6.938 1,10-4.147-1.52-2.595-8.738-5-12-2.997,1.466 3.818,12.307-1,7-.295-3.371-.502-6.831-2-9-1.194,2.239 1.997,8.636 2,13 1.163.163 1.779-.221 2-1 .973.027.776,1.224 1,2v2c-5.216-3.784-7.692-10.308-8-19-5.465-5.484-10.247-5.95-14-12-2.497.691 1.855,2.667 1,5-4.319-2.014-5.587-7.079-8-11-2.069,1.813 1.756,6.187 3,8-3.033,1.33-4.877-7.096-7-10-2.618,3.009 3.093,6.197 3,10-4.6-2.733-6.646-8.021-9-13-2.913,1.402 1.772,3.445 1,6-3.637-1.696-2.938-7.729-7-9 2.046,7.567 6.931,9.447 10,14-11.091-.909-10.262-13.738-17-19 1.787,4.547 4.47,8.196 6,13-5.371-4.962-7.907-12.76-12-19 .121,4.754-3.79,1.411 0,8-4.347,1.562-1.457-7.79-3-11-2.439,2.731-4.034-3.419-6-6-1.702,2.748 2.194,8.438 3,12-.525,3.864-5.936-11.583-7-17-1.265,2.638 1.272,10.03 3,13-4.392-.728-4.361-13.613-7-17-1.799,3.502 2.495,9.478 3,14-4.104-3.563-3.675-11.658-6-17-1.874,2.919 2.213,8.42 2,13-1.38-2.62-4.558-3.442-5-7 4.224,2.453.342-4.059 1-7-2.481-1.519-4.071-3.929-8-4-16.055-22.279-33.992-42.675-61-54-.318-2.652 5.603.936 4-3-.914-1.115-1.859-.315-5-1 .027-.973 1.224-.776 2-1-1.402-1.598-3.445-2.555-6-3 .732.934 1.818,1.515 3,2-3.628,1.265-10.832-2.479-11-8 1.44-.56 2.44-1.56 3-3 5.437,3.265 16.162,6.039 15,10 2.443-.556 3.654-2.346 5-4-2.951-4.407-4.763-4.354-10-7 8.087-.743 17.329,5.996 24,10-.311-3.356-3.345-3.988-6-5 12.561,2.304 19.304,16.021 33,22-5.248,1.229-11.089-5.563-16-8 3.108,6.565 17.848,10.147 24,17 1.729-3.102-6.545-4.758-7-9 7.387,2.613 9.597,10.403 19,11-.633-4.193-6.828-.629-4-4-2.729-.09-2.013,1.666-4,0 3.075-.561.674-.975-1-4 .348,6.156-5.974-2.69-9-5-.973.027-.776,1.224-1,2-4.076-1.651-1.033-4.24-5-6 2.503,1.463 17.659,10.854 28,8 .041-4.291-1.235-3.288-3-7 5.104-1.562 10.295-3.038 13-7-.227-1.274-2.984-1.311-3,0 4.064-5.045 16.977-16.334 8-27-3.062,2.169.959,5.629 0,9-3.124-1.876-2.306-7.694-3-12-1.162.163-1.779-.221-2-1-1.23.437-2.054,1.28-2,3-2.864-.136.864-6.864-2-7-2.931.847.598,3.22 0,5-2.092-.908-3.049-2.951-3-6-3.124,1.096-3.197,1.023-3-3-2.942-.848-6.498,2.708-4,4-.847,1.486-3.22,1.447-5,2-.551-3.783-6.484-2.182-8-5-.044,1.71.743,2.59 2,3-1.371,2.265-4.118-2.47-6-3 3.904,8.175-3.527-2.922-10-4-.533-3.466 1.485-9.485-2-10-.416,5.059-2.926,11.835-5,18-3.32-.325 2.633-4.362-1-5-2.756,1.244 1.268,9.268-4,8 .329-2.337 1.202-4.131 2-6-3.248,3.902-4.574-.964-5,7 1.434-1.182 1.895-5.304 2,0-1.464,2.32-3.17-1.954-3,2-2.487-.15-.292-3.386 0-4-5.287,2.595-4.095,5.548-10,7-1.5-1.167-2.445-2.888-5-3-3.128,1.617 3.976,1.243 2,5-5.965-.156-8.075-1.276-16-1-.729-2.729 1.987-2.013 2-4-1.599,7.367 5.412-3.994 5-7 7.271-.063 8.161-6.506 15-7-1.2-1.313-.39-1.573 0-3 1.135.19.556,1.003 0,1 10.284-1.055 18.27-13.06 30-16 9.695,3.164 13.404,2.752 20,6-.345-2.655-2.625-3.375-5-4 4.436-2.732 5.902,6.07 12,5-1.506-1.827-4.314-2.353-6-4 3.763-2.06 7.616,4.356 11,6 .691-4.024-4.211-2.456-4-6 3.832,1.167 4.429,5.572 8,7 2.188-.677-1.895-3.323-3-4 3.958-1.336 6.5,7.101 10,7 2.142-1.248-2.489-4.099-2-7h11c.016,2.984 2.6,3.4 3,6 3.12-1.506-2.94-4.314 0-6 4.744,3.898 9.184.552 14,9 .227.397 1.373-1.564 1-2 1.796,1.219-1.124,6.143 0,10 2.957-6.572 1.859,2.758 1,6-1.086-.247-.679-1.988-2-2 .702,6.974 5.806,18.187 9,26 1.496-3.443-5.677-10.146-2-16 .337,5.438 2.24,4.573 1,9 .247,1.258 1.988,1.009 2,0 3.276,12.39 8.892,22.442 13,34 1.414-7.989-9.383-16.958-7-26 5.325,10.342 9.157,22.176 12,35 1.77-1.9.93-6.4 3-8zm-54-65.999h4c-.445-2.555-1.402-4.598-3-6-1.373,2.279 2.578,3.759 0,4-1.647-1.686-2.173-4.494-4-6-.15,3.815 2.52,4.815 3,8zm40,63.999c-3.354-5.989-4.384-19.604-9-21 3.86,6.14 4.04,15.96 9,21zm-114-16.999c4.019.352 7.317-.016 8-3-3.57-1.897-6.09.545-8,3zm119,28.999c2.631,7.252-2.618-9.022 0-11-2.294-2.625-5.943-13.711-6-12 2.51,7.16 4.08,15.26 6,23zm-65-10c-1.257-.41-2.044-1.29-2-3-2.826-.826-2.591,1.409-5,1 .534-2.078-3.896-2.119-1-1 1.18,3.57 6.82,4.65 8,3zm62,13c-1.32-3.954-3.719-13.701-3-8 .565,4.481 1.409,4.058 2,11 2.261,2.073 3.123,5.543 4,9 1.84-1.12-1.28-6.86-3-12zm8,2c-.669-2.364-3.854-15.848-3-10 .755,5.175 2.351,10.652 4,17 .728,2.799 3.977,17.736 4,9-1.39-4.52-3.4-10.34-5-16zm0,7c-2.059-.275-.941-3.725-3-4 2.55,10.23 6.08,22.44 3,4zm2,45c-4.034-11.632-5.691-25.642-12-35 4.11,11.56 6.66,24.67 12,35zm6,4c-5.035-9.632-5.658-23.675-11-33 3.36,10.64 5.7,27.63 11,33zm6,5c-1.962-12.372-6.373-22.294-10-33 2.25,12.09 6.84,21.83 10,33zm4,2c1.717-2.254-1.836-16.014-5-20 1.89,6.44 4.11,12.56 5,20z" fill="#fff"/></g><g id="change1_118"><path d="m375,31.081c-3.993-3.34-1.328-13.339-3-19-3.225,5.13 2.619,14.403-1,20-3.396.277-9.217-6.159-10-2-2.527-2.594 2.69-5.927 2-10 1.357.31.829,2.504 1,4 2.851-1.645-.479-5.426-1-7-2.555.112-1.984,3.349-2,6-2.693-3.553-7.167,5.347-10,8-1.342-.658-1.862-2.138-2-4-1.042,3.361-3.888-.791-5,3-.587-3.639-4.361.22-9-1 6.284-13.049 19.76-18.907 32-26 4.621,1.045 5.073,6.26 7,10 2.487-.15.292-3.386 0-4 4.17,1.001-.48,14.244 1,22zm-9-5c3.073,1.53 3.073-6.53 0-5v5z" fill="#fff"/></g><g id="change1_119"><path d="m378,31.081c-3.537-6.399-.475-23.418 1-19 1.75,5.243.8,12.608-1,19z" fill="#fff"/></g><g id="change1_120"><path d="m380,13.081c3.652,3.53 3.592,15.492 3,20-5.88-2.205.53-13.893-3-20z" fill="#fff"/></g><g id="change1_121"><path d="m266,77.081c2.466-4.31 5.112,4.731 7,1-.363-2.514-.041,2.508 2,3-2,1.613-5.79-3.504-9-4z" fill="#fff"/></g><g id="change1_122"><path d="m407,209.08c2.671-1.626 4.479,6.154 5,10-5.61-2.723-7.804-8.862-13-12 .406-2.49 3.877-.06 3,2 .973-.027.776-1.224 1-2 2.323.677 2.677,3.323 5,4 .16-1.16-.22-1.78-1-2z" fill="#fff"/></g><g id="change2_28"><path d="m365,37.081c1.827,1.506 2.353,4.314 4,6 2.578-.241-1.373-1.721 0-4 1.598,1.402 2.555,3.445 3,6h-4c-.48-3.185-3.15-4.185-3-8z" fill="inherit"/></g><g id="change1_123"><path d="m179,35.081c1.24,2.613-3.964,7.339-4,12 4.608-3.725 4.258-12.409 10-15-.666,4.001-4.1,5.234-4,10 3.013-2.32 2.942-7.725 7-9-2.043,3.291-3.113,7.553-5,11 4.351-.983 3.466-7.201 6-10 7.285,4.927 9.582,17.806 11,27-7.447-4.692-4.692-13.891-7-21-3.462,1.911-3.586-.63-2-3-4.107,1.755-2.324,5.526-2,10-4.429-.417-7.816,9.53-13,14-1.734-2.125 4.916-4.374 4-9-3.853,5.147-6.508,11.492-13,14 1.035-2.632 3.965-3.368 5-6-3.159,1.508-4.277,5.056-9,5 .282-1.787-.945-2.052-1-1-2.931-.847.598-3.22 0-5-1.927.407-.79,3.877-4,3 6.545-5.122 6.575-16.758 12-23 .529,3.223-3.791,10.188-5,15 4.381-4.286 4.866-12.467 9-17 1.479,3.842-3.779,9.532-5,14 5.11-3.555 5.17-12.164 10-16z" fill="#fff"/></g><g id="change1_124"><path d="m147,52.081c-4.812,3.188-12.318,3.682-16,8 6.537-2.13 11.605-5.729 19-7-4.12,2.88-9.783,4.217-15,6 7.129.784 17.542-3.782 20-11 4.753.311-1.786,3.345-1,6 3.202-1.798 3.414-6.586 6-9 1.122,3.155-4.459,8.183-5,13-1.772-.228-5.008,1.008-4-2-2.091.576-2.854,2.479-6,2 1.957,3.52 5.018.733 9,1-3.901,6.992 8.178-4.067 8-9-2.017,1.317-3.384,3.283-4,6-.302-3.99 3.921-12.062 8-15-1.106,5.239-3.639,17.685-11,20 .136,7.693-.541,8.729-1,15-2.953-2.91.827-8.677-1-11-2.739,2.261.656,10.656-2,13-2.28-1.387-.373-6.96-1-10-2.236.431-.405,4.928-1,7-.973-.027-.776-1.224-1-2-1.541,6.901-1.784,15.824-2,2-3.639,5.511-3.033,15.434-2,23-.804-.529-1.624-1.043-3-1 .521,5.521-.573,9.427-1,14-3.245-9.258 2.781-17.876 2-28-3.187,5.715-3.149,18.219-5,28-2.772-7.403 2.112-19.011 2-24-3.967,6.5-3.813,19.716-5,26-2.781-6.801 1.18-15.472 2-22-4.982,2.201-1.65,17.434-6,17 .87,5.186 1.617,11.006 0,16-1.453.547-5.168-1.168-5,1 1.957,2.534 5.018-2.249 9-1-2.712,2.621-7.712,2.954-10,6 3.753.9 9.597-4.836 14-4-2.129,2.871-6.405,3.595-11,4 9.152,4.21 21.917-9.846 31-9-2.659-2.57 1.924-1.43 2-4 2.897.56-1.534,1.56-1,3 2.932-.068 3.714-2.286 5-4-2.753,2.107-1.538-1.317-1-3 1.135.19.555,1.003 0,1 4.181.493 9.904-6.08 14-9-4.229.689-11.454,8.201-11,7 9.358-10.976 23.125-17.542 33-28 3.164.164 3.342-2.658 7-2-1.2-1.313-.39-1.573 0-3 1.779,1.896-1.304,7.682 4,9 .675-8.122 8.288-14.203 17-11-4.426,9.307-5.852,12.918-12,18 .434-4.08 3.875-1.426 5-7-3.096.237-3.884,2.783-6,4-3.247-2.041 3.376-2.529 3-5-3.511-.178-3.289,3.378-6,4-.541,3.541 3.541,2.459 3,6-3.363-.03-2.037,4.63-4,6-2.135,2.468.282-3.175 1-4-.329-.905-7.111.155-7,3-2.995-.658.956-2.138 0-4-2.886,1.324-2.021,6.306 0,8 3.613.28 2.287-4.38 4-6 2.235,2.302-2.484,6.133-3,9-4.983-.579-7.708,1.311-7,6-1.85-.15-.614-3.386-2-4-4.858,3.574-9.967,7.278-18,12 1.317,4.205 3.283-.004 6,0-1.442,3.225-3.627,5.706-8,6-1.846,8.687 1.85,3.153-1,1-.23-.174-2.946,9.924-3,14-.785-3.05-.836-8.178 0-12-3.062,3.604-3.967,9.366-4,16-1.378,3.183-.99-3.534-1-5-4.693,1.383-1.614,4.3-3,6 .271-.332-3.37-5.308-4,5-1.509-.87.275-1.497-1-4-3.726,1.94-5.671,5.662-10,7 4.019,2.37-.229,6.84 2,11-1.108,4.076-1.276-7.545-2-1-2.168.168-.453-3.547-1-5-5.968,1.514 1.431,11.204-5,13-.649-3.649.674-5.326 2-7-5.513,7.298-20.892,17.112-23,28-4.661.877 1.377-2.594-2-3-1.689,1.645-1.241,5.426-3,7-3.509-.274 2.509-3.726-1-4-1.401,7.139-5.415,5.52-8,11-1.484-.437.395-1.279 0-3-6.679,9.321-17.653,14.347-26,22-2.858-2.281 4.08-3.187 4-6-6.876,6.124-16.139,9.861-21,18-.973-.027-.776-1.224-1-2-2.365,2.302-3.2,6.133-5,9-1.327-2.629-3.868-2.505-3,2-1.973,3.778.246-4.77-2-4-3.093.24 1.563,8.23-3,7-.769-3.769 1.22-4.78 1-8-3.491,3.299-3.014,1.696-5-1-2.035.965-2.16,3.84-2,7 1.314-3.012 3.186-.729 4,2-1.314-1.02-3.686-.98-5-2-.688-4.021.958-5.708 1-9-3.272.395-2.433,4.9-3,8-2.623-2.366.418-7.524 1-10-3.093-.093-2.98,3.02-3,6-1.774,2.668-.729-5.859-1-8-4.142.857.718,10.719-5,10 1.663-3.337 1.005-8.995 3-12-4.517.483-2.458,7.542-4,11-9.677-.99 3.434-14.607-2-17 7.15-46.517 30.906-76.428 44-117 5.683-2.65 5.678-10.989 11-14-.108-7.775 2.766-12.567 8-15-1.26,5.406-4.334,8.999-6,14 1.446,2.957 2.103-3.115 3-4 2.375,2.766-3.182,6.108-3,10 10.87-8.797 11.069-28.265 23-36 1.454.443-.102.878 0,2 12.74-4.261 21.61-12.391 36-14.999zm32,52.999c4.588-2.079 5.989-7.344 10-10-4.36,1.657-11.19,6.12-10,10zm1,16c2.702-2.632 5.849-4.817 9-7-3.75.95-9.75,4.88-9,7zm-4,4c3.008,1.498-3.429,1.789-3,4 3.97.32 8.08-6.49 3-4zm-141,105c-3.71.657-4.72,9.234-3,12 1.727-3.27.621-9.38 3-12zm95-169c-6.16,1.506-11.602,3.731-16,7 6.32-1.345 10.94-4.39 16-7zm-2,61.999c.876-2.181 3.711-7.545 1-10 .63,3.69-3.62,7.64-1,10zm-41,95c4.896.063 14.434-8.771 16-12-5.066,3.601-8.992,8.341-15,11 15.076-13.591 30.961-26.372 45-41-16.21,13.12-31.98,26.69-46,42z" fill="#fff"/></g><g id="change1_125"><path d="m158,153.08v3c-.81-.19-.997-1.003-2-1-1.26,1.665-2.59,5.426-5,3 1.48-2.52 3.87-4.13 7-5z" fill="#fff"/></g><g id="change1_126"><path d="m198,83.081c-.165,1.869-5.598,7.044-10,8 3.46-2.537 5.82-6.178 10-8z" fill="#fff"/></g><g id="change1_127"><path d="m205,49.081c.043,2.459 2.169,8.341 3,13-3.034.367-2.076-3.257-3-5-2.816,1.01.276,4.247 0,6-4.333-6.667-7.774-14.226-9-24 3.909,4.424 3.694,12.973 8,17 2.022-2.397-5.503-8.004-3-11 1.25.843 2.45,6.756 4,4z" fill="#fff"/></g><g id="change1_128"><path d="m162,34.081c.224,2.075.822,4.086 3,0-3.497,9.508-19.276,15.387-31,20 1.02-1.314.98-3.686 2-5 7.71-1.058 15.501-10.424 24-14-2.36,3.458 2.05,1.469 2-1z" fill="#fff"/></g><g id="change1_129"><path d="m304,38.081c-6.691,5.405-13.23,9.11-4,3 1.02-.675.8-3.206 4-3z" fill="#fff"/></g><g id="change1_130"><path d="m212 62.081c-6.741-2.894-3.084-11.828-6-17 3.43 4.238 4.42 10.914 6 17z" fill="#fff"/></g><g id="change1_131"><path d="m209 45.081c2.488 4.512 4.229 9.771 6 15-4.74-2.256-4.17-9.833-6-15z" fill="#fff"/></g><g id="change2_29"><path d="m189 95.081c-4.011 2.656-5.412 7.921-10 10-1.19-3.88 5.64-8.343 10-9.999z" fill="inherit"/></g><g id="change2_30"><path d="m189,114.08c-3.151,2.183-6.298,4.368-9,7-.75-2.12 5.25-6.05 9-7z" fill="inherit"/></g><g id="change2_31"><path d="m173,129.08c-.429-2.211 6.008-2.502 3-4 5.08-2.49.97,4.32-3,4z" fill="inherit"/></g><g id="change2_32"><path d="m114 68.081c4.398-3.269 9.84-5.494 16-7-5.06 2.61-9.68 5.655-16 7z" fill="inherit"/></g><g id="change1_132"><path d="m404,58.081c-2.714,3.214 1.475,5.93 1,10-1.889-.111-.694-3.306-3-3 1.124,3.858 2.365,4.621 1,9-1.336-6.399-3.27-12.666-4-17-2.938,5.15-2.335-8.671-4-8 .013-2.806 2.729,2.381 2-2 .761,1.572 3.173,1.494 3,4-6.43-4.661.11,6.952 4,7z" fill="#fff"/></g><g id="change1_133"><path d="m218,72.081c.216-6.882-1.253-12.08-3-17 1.332-1.001 3.018-1.648 4-3 3.11.223 1.689,4.977 2,8 1.357-.31.83-2.504 1-4 2.27,1.064.381,6.286 1,9-3.209-1.124-1.865-6.802-4-9-1.819,3.522 3.283,8.69 2,15 1.483-.85 2.15-2.517 2-5 2.41,2.154-.49,7.45-5,6z" fill="#fff"/></g><g id="change1_134"><path d="m332,71.081c-1.778,1.867-2.542-.812-6,0-.282,1.615.945,1.722 1,3 2.797,1.807-3.15-.307-2-3-1.701-.368-1.887.78-2,2-.89-.777-2.258-1.075-4-1 .122-3.704 1.455-2.516 4-2-1.5-1.167-2.445-2.888-5-3-.688-2.689 2.067-1.933 3-3-.658-2.995-2.138.956-4,0-.978-5.88 3.757.16 4-4-.241-2.578-1.721,1.373-4,0 .649-1.017 2.299-1.034 2-3 4.716.506 13.992,4.101 8,9 .94.662 4.87.934 5,5z" fill="#fff"/></g><g id="change1_135"><path d="m180 59.081c2.872 2.295-2.971 4.295-4 6-2.15-1.578 3.69-3.578 4-6z" fill="#fff"/></g><g id="change1_136"><path d="m187,59.081c.906,1.624-2.293,7.669-5,9-.06-4.723 3.49-5.841 5-9z" fill="#fff"/></g><g id="change2_33"><path d="m163 193.08c-5.554 6.779-10.667 13.999-16 21 1.94-6.4 9.28-16.04 16-21z" fill="inherit"/></g><g id="change2_34"><path d="m161,182.08c.08-.648-5.662,9.473-10,11 3.05-3.95 5.18-8.82 10-11z" fill="inherit"/></g><g id="change1_137"><path d="m303,84.081c.625-2.375 1.345-4.655 4-5 .826,2.826-1.409,2.591-1,5 2.306.306 1.111-2.889 3-3 3.985-.652 2.864,3.802 3,7-4.47.168-2.581-3.519-1-5-2.94,1.907-3.83,2.068-8,1z" fill="#fff"/></g><g id="change1_138"><path d="m172,81.081c1.963,1.069-.657,5.931-2,7 .58,3.247-.681,4.652-1,7 .282,1.787-.945,2.052-1,1 .244-4.423 2.048-7.285 2-12 .93-.733 1.52-1.819 2-3z" fill="#fff"/></g><g id="change1_139"><path d="m327,85.081c-2.665,1.002-3.297,4.036-5,6-3.69-3.113 2.334-4.933 2-8 1.679,1.654 5.871.795 5,5-1.23-.437-2.05-1.28-2-3z" fill="#fff"/></g><g id="change1_140"><path d="m164 87.081c1.251 6.932-4.092 15.898-3 26-3.24-5.07 1.33-19.214 3-25.999z" fill="#fff"/></g><g id="change2_35"><path d="m399 88.081c4.616 1.396 5.646 15.011 9 21-4.96-5.04-5.14-14.86-9-20.999z" fill="inherit"/></g><g id="change1_141"><path d="m329 98.081c2.68-9.834 7.29-5.226 0 0z" fill="#fff"/></g><g id="change2_36"><path d="m407,98.081c.057-1.711 3.706,9.375 6,12-2.618,1.978 2.631,18.252 0,11-1.92-7.74-3.49-15.84-6-22.999z" fill="inherit"/></g><g id="change1_142"><path d="m278,101.08c1.027-4.403 5.072,3.809 9,3 .729,2.729-1.987,2.013-2,4 1.286,2.796 2.067-3.15 5-2-1.621,3.045-3.079,6.254-7,7 .48-6.15-.05-11.28-5-12z" fill="#fff"/></g><g id="change1_143"><path d="m296,110.08c1.615-.282 1.722.945 3,1-3.505,5.495-6.863,11.137-13,14 7.351,2.002 8.587-10.735 16-12-2.16,8.173-10.195,10.472-14,17 4.909-1.104 10.469-10.188 15-15 2.754,1.913 5.088,4.246 7,7-4.472,8.195-12.437,12.896-17,21 5.33-2.679 11.894-12.767 17-19-3.054,9.285-14.17,19.159-20,29-3.264-2.07-2.09-8.577-3-13 4.41-1.411.017,5.984 3,6 2.851-1.645-.479-5.426-1-7 4.458-6.875 9.718-12.949 15-19-5.155,2.521-12.369,11.624-16,19-2.107-.818-2.743-5.272-1-7-2.583-.659-2.729-1.099-3-6 3.12-6.21 8.92-9.75 12-16zm-5,30c7.007-4.993 11.974-12.027 17-19-6.85,5.15-11.12,12.88-17,19z" fill="#fff"/></g><g id="change1_144"><path d="m283 119.08c5.744-1.438 7.596-11.488 13-10-3.892 4.775-8.05 9.283-12 14-1.547-1.453-2.1-3.9-2-7 4.929-1.072 6.008-5.993 9-9 1.48 4.17-6.4 7.58-8 12z" fill="#fff"/></g><g id="change2_37"><path d="m340,108.08c-2.896-1.119 1.534-1.078 1,1 2.409.409 2.174-1.826 5-1-.044,1.71.743,2.59 2,3-1.18,1.65-6.82.57-8-3z" fill="inherit"/></g><g id="change2_38"><path d="m413,136.08c-.877-3.457-1.739-6.927-4-9-.591-6.942-1.435-6.519-2-11-.719-5.701 1.68,4.046 3,8 1.72,5.14 4.84,10.88 3,12z" fill="inherit"/></g><g id="change2_39"><path d="m423,142.08c-.023,8.736-3.272-6.201-4-9-1.649-6.348-3.245-11.825-4-17-.854-5.848 2.331,7.636 3,10 1.6,5.66 3.61,11.48 5,16z" fill="inherit"/></g><g id="change1_145"><path d="m429 118.08c4.339 2.215-1.119 8.695-1 13-4.67-4.36 2.44-6.25 1-13z" fill="#fff"/></g><g id="change2_40"><path d="m308 121.08c-5.026 6.973-9.993 14.007-17 19 5.88-6.12 10.15-13.85 17-19z" fill="inherit"/></g><g id="change1_146"><path d="m431 124.08c4.459 3.209-1.383 7.865-1 13-3.66-4.38 3-6.96 1-13z" fill="#fff"/></g><g id="change2_41"><path d="m415,129.08c2.059.275.941,3.725 3,4 3.08,18.44-.45,6.23-3-4z" fill="inherit"/></g><g id="change1_147"><path d="m318,133.08c-1.759.241-2.279,1.721-2,4-2.931-.847.598-3.22 0-5 3.135-.468 2.819,2.514 4,4-.441,2.892-2.108,4.559-5,5 1.54-2.83 5.07-4.26 3-8z" fill="#fff"/></g><g id="change1_148"><path d="m435,133.08c3.782.684 3.48,11.671 0,9 .284,5.284-.056,9.944-2,13-5.42-7.51 4.42-11.49 2-22z" fill="#fff"/></g><g id="change2_42"><path d="m408 143.08c6.309 9.358 7.966 23.368 12 35-5.34-10.33-7.89-23.44-12-35z" fill="inherit"/></g><g id="change1_149"><path d="m327,146.08c.944-1.521 4.866,2.4 5,5-.891.443-1.788.878-2,2-1.736-.91-2.585-3.504-1-5-.44-.89-.88-1.79-2-2z" fill="#fff"/></g><g id="change2_43"><path d="m415 149.08c5.342 9.325 5.965 23.368 11 33-5.3-5.37-7.64-22.36-11-33z" fill="inherit"/></g><g id="change1_150"><path d="m436 150.08c2.848 5.035-1.119 10.761 1 16-3.06-1.42-3.82-10.93-1-16z" fill="#fff"/></g><g id="change2_44"><path d="m422 154.08c3.627 10.706 8.038 20.628 10 33-3.16-11.17-7.75-20.91-10-33z" fill="inherit"/></g><g id="change1_151"><path d="m338,163.08c-1.357-.31-.829-2.504-1-4 2.121,2.88 7.133,7.072 4,12-.84-2.02-.97-8.6-3-8z" fill="#fff"/></g><g id="change1_152"><path d="m330,160.08c.178,3.511-3.378,3.289-4,6-.851.184-.943-.39-1-1v-2c.851-.184.943.39 1,1 2.04-.63.28-5.05 4-4z" fill="#fff"/></g><g id="change1_153"><path d="m325,182.08c-.429,1.904-2.154,2.513-2,5 8.702-2.602-2.312-14.578 5-18 1.893,2.441 2.146,6.52 2,11 2.236-.431.405-4.929 1-7 4.462.441 1.488,2.108 3,5 2.681-2.458-1.754-6.851 1-10 3.298.577 1.434,3.776 1,6 2.134.467 1.904-1.429 2-3 2.85,1.645-.479,5.426-1,7 1.044,1.621 5.062-2.204 4-6 4.096,5.09-5.23,11.397-8,16 4.205-1.607 12.598-10.255 10-19 8.139,5.204 1.107,15.767-3,20 3.781-.238 7.342-9.31 10-14 3.979,6.363-6.266,14.788-9,21 6.973-3.361 6.722-13.945 14-17-2.646,8.354-7.117,14.883-11,22 6.068-1.275 6.83-16.495 14-20-2.969,10.031-9.332,16.668-13,26 4.899-2.434 5.458-9.209 8-14 3.221,6.577-3.818,11.498-4,18 1.882-2.451 3.774-4.892 4-9 3.481,3.549-2.146,6.472-1,11 .973-.027.776-1.224 1-2 2.382,7.786 1.321,14.49 3,24-.103-7.322.672-24.349-1-26 .116-2.551.188-5.146 3-5-1.056,12.048-.06,29.688 3,43-14.869-5.131-32.791-7.209-52-8-.826-2.826 1.409-2.591 1-5-2.7.3-1.793,4.207-4,5-5.542.422 4.363-7.6-1-7 6.883-12.45 16.563-22.104 23-35-9.495,11.172-16.811,24.523-26,36 2.92,1.617 1.099,2.462 1,6-4.064.398-3.077-4.256-6-5 10.779-16.555 21.981-32.685 34-48-13.469,11.533-24.816,33.849-37,50-2.256-.745-.391-5.609-1-8 10.717-12.617 20.085-26.582 30-40-2.03-2.58-2.48-5.66 2-6zm-15,49c4.765-1.102 9.011-12.718 8-13-2.46,4.54-5.16,8.84-8,13zm1,5c2.505.092 4.884-5.011 3-6-.89,2.11-3.04,2.96-3,6z" fill="#fff"/></g><g id="change2_45"><path d="m431,169.08c3.164,3.986 6.717,17.746 5,20-.89-7.44-3.11-13.56-5-20z" fill="inherit"/></g><g id="change2_46"><path d="m133 176.08c-14.039 14.628-29.924 27.409-45 41 6.008-2.659 9.934-7.399 15-11-1.566 3.229-11.104 12.063-16 12 14.02-15.31 29.79-28.88 46-42z" fill="inherit"/></g><g id="change1_154"><path d="m449,178.08c3.738-.05 8.202,7.781 10,13-1.753-.863-3.475-3.725-3,1-1.108,4.076-1.275-7.546-2-1-1.294-3.077 1.495-11.508-4-10 .09-1.42.16-2.83-1-3z" fill="#fff"/></g><g id="change1_155"><path d="m463,184.08c.127,4.207 3.873,4.793 4,9-2.193-3.474-6.4-4.934-9-8 .3-2.7 4.207-1.793 5-4 7.69,6.48 6.94,13.26 0,3z" fill="#fff"/></g><g id="change1_156"><path d="m284,183.08c1.155,2.293 1.303,5.852 0,9-1.54-2.86-.9-6.03 0-9z" fill="#fff"/></g><g id="change1_157"><path d="m132 187.08c2.03 1.453-1.951 5.315-3 7-2.73-2.16 2.34-4.92 3-7z" fill="#fff"/></g><g id="change1_158"><path d="m291,199.08c-.857-3.19 1.574-3.093 2-5 .974,2.754 1.522,7.424-1,10-4.32-1.46 4.31-5.49-1-5z" fill="#fff"/></g><g id="change1_159"><path d="m252,205.08c-.997-4.997 3.105-4.895 3-9 1.717,5.146.866,10.637-2,15-2.979-2.085 2.514-4.073 2-7-1.07-3.4-.31,2.78-3,1z" fill="#fff"/></g><g id="change1_160"><path d="m121 197.08c1.687 1.431-1.756 6.188-3 8-2.34-2.08 2.13-5.81 3-8z" fill="#fff"/></g><g id="change1_161"><path d="m473,198.08c4.607,1.643-.851,3.344 0,7-1.753-.914-3.475-1.859-3-5 2.15,1.8 3.54,2.84 3-2z" fill="#fff"/></g><g id="change1_162"><path d="m282,207.08c-.123,6.762-2.501,16.695-2,5-.02.39-1.4-4.55 2-5z" fill="#fff"/></g><g id="change1_163"><path d="m479,207.08c2.431,1.569 3.746,4.254 4,8-2.655,1.112-3.375-6.229-4-1-1.28,1.47-.69-5.52 0-7z" fill="#fff"/></g><g id="change1_164"><path d="m285,208.08c1.401.354.086,1.761-1,2 .027.973 1.224.776 2,1-.354,1.313-1.761,1.573-2,3-2.169.169-.453-3.547-1-5 1.16.16 1.78-.22 2-1z" fill="#fff"/></g><g id="change1_165"><path d="m165,210.08c.849,3.441 1.97,9.777-1,13 .9-6.08-2.19-6.56 1-13z" fill="#fff"/></g><g id="change1_166"><path d="m486,216.08c.743,4.076-3.223,3.443-2,8-3.063-.937-2.457-5.543-5-7 1.562-3.073 3.48,1.737 4,3 2.44-1-1.96-4.42 3-4z" fill="#fff"/></g><g id="change2_47"><path d="m318,218.08c1.011.282-3.235,11.898-8,13 2.84-4.16 5.54-8.46 8-13z" fill="inherit"/></g><g id="change2_48"><path d="m448,217.08c6.705,6.444 10.384,15.048 12,18-.277-.508 4.763,7.435-1,0-.72-.92-8.44-13.27-11-18z" fill="inherit"/></g><g id="change1_167"><path d="m273,220.08c1.329.866 1.04,7.288-3,8-.04-3.7 1.54-5.8 3-8z" fill="#fff"/></g><g id="change1_168"><path d="m359,220.08c4.235,5.622.915,16.305 3,22-2.08-2.27-3.05-14.27-3-22z" fill="#fff"/></g><g id="change1_169"><path d="m497,225.08c-.891.443-1.788.878-2,2-2.487-.15-.292-3.387 0-4 1.264,1.497 5.304,1.789 3,4-.97-.03-.78-1.22-1-2z" fill="#fff"/></g><g id="change2_49"><path d="m184,224.08c2.47,6.53 4.855,13.145 8,19-2.111,2.746-1.737-2.691-5,0-.76-6.58-2.22-12.44-3-19z" fill="inherit"/></g><g id="change2_50"><path d="m441 225.08c7.19 6.813 13.399 23.264 21 33-9.08-8.92-13.88-22.12-21-33z" fill="inherit"/></g><g id="change2_51"><path d="m436 226.08c7.457 10.21 14.1 21.234 20 33-7.27-10.4-14.21-21.12-20-33z" fill="inherit"/></g><g id="change1_170"><path d="m28,230.08c-2.642,1.452-13.108.023-11,5-6.706-1.14 6.498-8.79 11-5z" fill="#fff"/></g><g id="change1_171"><path d="m162 230.08c1.964 1.387-2.1 5.166-2 8-3.02-2.44 1.06-6.21 2-8z" fill="#fff"/></g><g id="change1_172"><path d="m479 239.08c-4.19-2.539-2.19 1.858-4 4-2.797-3.188 2.877-6.413 2-11 3.21 1.64 2.55 3.34 2 7z" fill="#fff"/></g><g id="change1_173"><path d="m70 233.08c1.249 3.281-4.974 7.668-7 11-1.195-3.23 5.967-6.67 7-11z" fill="#fff"/></g><g id="change2_52"><path d="m434,236.08c9.957,4.38 12.898,24.432 24,31-1.603,2.809-3.737-2.168-6-2-1.978,2.369 4.827,4.462 4,9-3.157-1.176-3.479-5.187-6-7-3.351,2.774 2.589,4.677 3,7 .068,7.265-.764,15.431 2,20 2.396.396-.555-4.555 3-3-.478,3.583-1.627,5.778 0,9 2.134.467 1.904-1.429 2-3 2.079,2.921.371,9.629 2,13-3.626-3.125-1.379,6.026-2,9-8.117-3.572-1.404-11.905-5-20-.409,3.948-1.102,15.541-2,19-2.012-7.935 2.135-21.194-2-29-1.553,10.484 1.81,19.646-2,29-3.943-3.822.9-9.221 1-15 .192-11.213-5.044-24.228-3-34-7.517-9.817-12.845-21.822-20-32 7.785,5.22 12.299,22.365 21,30 1.889-.111.694-3.306 3-3-4.69-10.31-10.02-19.98-17-28zm18,51c-.262-5.405 1.243-12.576-3-14 .48,5.64-.17,9.52 3,14z" fill="inherit"/></g><g id="change1_174"><path d="m483,242.08c.691-2.497 2.667,1.855 5,1-2.688-3.723-1.125-2.884 4-3-2.776-4.371 2.809-2.131 4-5 1.547,1.453 2.1,3.9 2,7-5.842-4.148-.848,2.871-1,7-3.276-3.112-4.724-1.888-8-5-1.451,2.824 6.076,5.228 7,9-5.52-2.48-8.42-7.58-13-11z" fill="#fff"/></g><g id="change1_175"><path d="m476,243.08c5.352.314 9.091,2.243 12,5-1.33-2.42-10.77-.54-12-5z" fill="#fff"/></g><g id="change1_176"><path d="m64,246.08c.872.295.284,7.551-3,7-.442-3.78 1.972-4.69 3-7z" fill="#fff"/></g><g id="change1_177"><path d="m69,247.08c2.836-3.164-3.401,7.191 3,5-.125,2.209-4.242.425-6,1 1.446-1.55 2.103-3.9 3-6z" fill="#fff"/></g><g id="change1_178"><path d="m407,253.08c2.834-.801 5.783,6.858 8,10-2.04,0-4.83-7.81-8-10z" fill="#fff"/></g><g id="change2_53"><path d="m68,262.08c1.614,9.35-5.849,29.438 0,37 .515-7.074 1.259-27.842 3-40 4.034,10.9-5.543,34.083 3,43-8.167,1.581-2.399,17.957-11,22-3.516-3.907 4.435-4.855 4-9-2.792-2.4-3.461,5.829-7,6 .011-5.989 6.328-5.672 5-13-1.882,2.451-4.138,4.529-5,8-3.006-4.709 4.09-7.883 4-13-3.57.431-3.491,4.51-5,7-2.493-2.56-.585-9.202 1-11-4.203-4.532-7.836.366-10-3-2.578.241 1.373,1.721 0,4-3.578-.422-2.813-5.187-3-9 2.306-.306 1.111,2.889 3,3 4.665-5.668-.223-20.889 6-25-1.332,7.465-3.263,19.228-2,26 7.605-4.728-.416-25.082 7-30-.875,9.467-3.661,22.328-2,31 3.507-8.159 1.095-22.238 6-29-.979,9.354-2.643,18.023-3,28 5.317-7.68 1.445-24.56 6-33zm0,45c.937-.845 2.136-6.375 0-7 .004,1.79-2.693,5.82 0,7z" fill="inherit"/></g><g id="change2_54"><path d="m407 283.08c3.681 12.827 10.119 20.682 15 34-4.422-5.244-7.031-12.303-10-19-2.405 7.089 5.285 12.702 7 19-8.17-9.15-11.36-18.84-12-34z" fill="inherit"/></g><g id="change2_55"><path d="m18,278.08c1.793-.127 2.109,1.224 4,1-4.164,4.895 3.208,4.936 4,8-5.647,3.02-10.61,6.723-15,11-.806-7.394 4.155-12.354 10-10-.533-3.8-3.123-5.54-3-10z" fill="inherit"/></g><g id="change2_56"><path d="m465,294.08c5.362,6.542-1.833,17.368-2,25-.65-7.51 1.41-15.08 2-25z" fill="inherit"/></g><g id="change2_57"><path d="m470,296.08c.127,5.475-2.027,17.295-4,24-2.6-4.36 3.05-16.64 4-24z" fill="inherit"/></g><g id="change2_58"><path d="m480,294.08c.135,6.147-3.128,17.528-5,25-1.43-7.44 3.43-17.22 5-25z" fill="inherit"/></g><g id="change2_59"><path d="m419,304.08c2.365,2.302 3.2,6.133 5,9-1.39.67-4.96-5-5-9z" fill="inherit"/></g><g id="change2_60"><path d="m38,292.08c4.085-.302-.169,1.385 1,4 5.414-5.92 7.157-15.51 7-27 5.088,8.216-2.67,20.569-2,31h-3c-2.375.505-4.099-7.344-5-2-3.018-1.17 1.06-8.78 2-6z" fill="inherit"/></g></g></svg>